<svg xmlns="http://www.w3.org/2000/svg" viewBox="0 0 500 500"><g id="freepik--background-complete--inject-1"><rect y="382.4" width="500" height="0.25" style="fill:#ebebeb"></rect><rect x="416.78" y="398.49" width="33.12" height="0.25" style="fill:#ebebeb"></rect><rect x="322.53" y="401.21" width="8.69" height="0.25" style="fill:#ebebeb"></rect><rect x="396.59" y="389.21" width="19.19" height="0.25" style="fill:#ebebeb"></rect><rect x="52.46" y="390.89" width="43.19" height="0.25" style="fill:#ebebeb"></rect><rect x="104.56" y="390.89" width="6.33" height="0.25" style="fill:#ebebeb"></rect><rect x="131.47" y="395.11" width="93.68" height="0.25" style="fill:#ebebeb"></rect><path d="M237,337.8H43.91a5.71,5.71,0,0,1-5.7-5.71V60.66A5.71,5.71,0,0,1,43.91,55H237a5.71,5.71,0,0,1,5.71,5.71V332.09A5.71,5.71,0,0,1,237,337.8ZM43.91,55.2a5.46,5.46,0,0,0-5.45,5.46V332.09a5.46,5.46,0,0,0,5.45,5.46H237a5.47,5.47,0,0,0,5.46-5.46V60.66A5.47,5.47,0,0,0,237,55.2Z" style="fill:#ebebeb"></path><path d="M453.31,337.8H260.21a5.72,5.72,0,0,1-5.71-5.71V60.66A5.72,5.72,0,0,1,260.21,55h193.1A5.71,5.71,0,0,1,459,60.66V332.09A5.71,5.71,0,0,1,453.31,337.8ZM260.21,55.2a5.47,5.47,0,0,0-5.46,5.46V332.09a5.47,5.47,0,0,0,5.46,5.46h193.1a5.47,5.47,0,0,0,5.46-5.46V60.66a5.47,5.47,0,0,0-5.46-5.46Z" style="fill:#ebebeb"></path><path d="M429.29,377.87l-.47-69-10.25-8.66-4.74-22.81-6.14-7.16-3.3-16-5.6,7.27-3.17,43.68-3.17-5-2.52-17-5.06,5.44-6.33,1.58-3.69,36.08-94,11.22L261.3,320.83l-8-32.66-8.25-8.51-2.51-15.74-7.89,2.73v16.61L228,287.12l-2.87,33.71-8.42,11.65-2.39-20.83s-6.45-5.16-7.88-6.4-9.56-23.9-8.33-25.59-1.76-16.39-1.76-16.39l-8.13,4.86v24.35l-8.48,2.15-1.28,10.62-21.64,3.49-3.48-16.26h-9.65l-3,9.27-8.78-.06-13.89,10-11.42-22.42-11.62,5.4-8.37-19.42-8.79,11.38-3.26,36.93L70,324l-2.09-8-8.46,8v53.83Z" style="fill:#f5f5f5"></path><path d="M273.05,193.64H221.18a8.28,8.28,0,0,1,.23-16.55,8.16,8.16,0,0,1,2.38.35,17.76,17.76,0,0,1-.19-2.54,17.54,17.54,0,0,1,17.54-17.54,17.25,17.25,0,0,1,3.23.3,15.32,15.32,0,0,1,28.42,7.75h.26a14.13,14.13,0,0,1,0,28.25Z" style="fill:#f5f5f5"></path><path d="M304.1,111H284.59a3.11,3.11,0,0,1,.08-6.22,2.92,2.92,0,0,1,.9.13,6,6,0,0,1-.07-1,6.59,6.59,0,0,1,6.6-6.59,6.89,6.89,0,0,1,1.21.11A5.76,5.76,0,0,1,304,100.39h.1a5.32,5.32,0,0,1,0,10.63Z" style="fill:#f5f5f5"></path><path d="M126.34,117.07H106.83a3.11,3.11,0,0,1,.09-6.22,2.9,2.9,0,0,1,.89.13,7.48,7.48,0,0,1-.07-1,6.61,6.61,0,0,1,6.6-6.6,6.06,6.06,0,0,1,1.21.12,5.76,5.76,0,0,1,10.69,2.91h.1a5.32,5.32,0,0,1,0,10.63Z" style="fill:#f5f5f5"></path><path d="M126.34,175.08H106.83a3.11,3.11,0,0,1,.09-6.22,3.24,3.24,0,0,1,.89.13,7.48,7.48,0,0,1-.07-1,6.6,6.6,0,0,1,6.6-6.59,6.89,6.89,0,0,1,1.21.11,5.76,5.76,0,0,1,10.69,2.92h.1a5.32,5.32,0,0,1,0,10.63Z" style="fill:#f5f5f5"></path><path d="M413.78,190H385.56a4.5,4.5,0,0,1,.13-9,4.24,4.24,0,0,1,1.29.19,10.57,10.57,0,0,1-.1-1.39,9.54,9.54,0,0,1,9.54-9.54,9.22,9.22,0,0,1,1.76.17,8.34,8.34,0,0,1,15.46,4.21h.14a7.69,7.69,0,1,1,0,15.37Z" style="fill:#f5f5f5"></path><path d="M202.54,126.75H174.32a4.51,4.51,0,0,1,.13-9,4.57,4.57,0,0,1,1.29.19,9,9,0,0,1-.1-1.38,9.54,9.54,0,0,1,9.54-9.54,10.19,10.19,0,0,1,1.76.16,8.34,8.34,0,0,1,15.46,4.22h.14a7.69,7.69,0,0,1,0,15.37Z" style="fill:#f5f5f5"></path><path d="M292,283.28c-2.12-15.47,4.42-32.84,13.6-44.32a39.64,39.64,0,0,0,4.74-6.58c3.8-7.45-2.11-12.67-7.62-16.85C281.89,199.74,305.29,197,316.22,188a5.49,5.49,0,0,0,2.17-3c.38-2-1.34-3.8-2.9-5.16C308,173.22,298.6,166.64,296.92,156c-.7-4.43.4-9.3,3.61-12.44,8.08-7.88,54.42,1.44,45.79-19.41-1.26-3.05-3.11-6.18-2.44-9.41,4.17-20,53.45-12.12,66.77-11.45a101.92,101.92,0,0,0-33.54,3.94c-5,1.46-10.74,4.29-11.27,9.48s4.29,8.84,8,11.38c5.67,3.87,12.83,9.81,6.83,17-7.61,9.14-22.43,10.4-33.18,13.26-3.76,1-7.82,2.52-8,7.08-.12,2.59,1,5.07,2.27,7.33,2.69,4.84,6.13,9.29,8.24,14.41s2.3,11.95-1.3,16.66c-6.9,9.06-19.35,6.57-10.46,21.6,11.21,19,10.61,41.26,2.38,61.33-4.14,10.08-11.71,21.72-23.75,22.45-6.67.41-13.19-3.16-17.43-8.33A35.05,35.05,0,0,1,292,283.28Z" style="fill:#e0e0e0"></path><path d="M67,359.12l16.53-3.3,3.72-45.17,11.27-7.81,3.93-38.74,10.13-11.4,4.71,8.88,7.69,14,2.57,13.77,4.36,12.3,9.42,14.73,8.46-7.55s4.61-7.48,6.82-8.46,11.22-1.8,11.22-1.8l12.54,12V320l12.83,6.84,7.89,7.93,4.72,5.83,8.77,4.56c19.27-13.3,67-50.61,77.62-100.16l12,11.29,8.55-13.44L319.45,257l-4.73,14.9,8.24,7.51-3.51,15.05,9.81-15.05L324,268.78l4-9.37-3-13.87,9.27-4.19,11.83,18.06,8.08-14.4s10.05,75.15,94,137H48.9Z" style="fill:#ebebeb"></path></g><g id="freepik--Shadow--inject-1"><ellipse id="freepik--path--inject-1" cx="250" cy="416.24" rx="193.89" ry="11.32" style="fill:#f5f5f5"></ellipse></g><g id="freepik--speech-bubble--inject-1"><rect x="312.32" y="190.95" width="21.1" height="21.1" rx="3.69" transform="translate(-5.14 8.48) rotate(-1.49)" style="fill:#6B63D7"></rect><path d="M325.37,210.36s-2.6,6.4-8.75,8.54c0,0,3.38-2.07,2.95-8.66Z" style="fill:#6B63D7"></path><g style="opacity:0.5"><path d="M321.58,206a1.25,1.25,0,0,1,1.31-1.25,1.23,1.23,0,0,1,1.28,1.25,1.25,1.25,0,0,1-1.28,1.27A1.27,1.27,0,0,1,321.58,206Zm.11-10.2h2.4l-.41,7.59h-1.6Z" style="fill:#fff"></path></g></g><g id="freepik--Character--inject-1"><g id="freepik--group--inject-1"><polygon points="308.57 350.62 304.48 355.02 295.17 346.05 299.25 341.65 308.57 350.62" style="fill:#eec1bb"></polygon><polygon points="299.25 341.65 295.17 346.05 299.98 350.68 304.06 346.27 299.25 341.65" style="opacity:0.2;isolation:isolate"></polygon><path d="M303,353.54l6-3.32a.49.49,0,0,1,.62.09l3.26,3.83a.86.86,0,0,1-.17,1.22.46.46,0,0,1-.15.09c-2.09,1.11-3.22,1.61-5.83,3.05-1.6.88-8.36,4-10.78,4s-2.56-2.28-1.56-2.58c5.08-1.55,7.16-3.8,7.91-5.62A1.66,1.66,0,0,1,303,353.54Z" style="fill:#263238"></path><path d="M301.69,355.37a1.93,1.93,0,0,1-1.14.31.74.74,0,0,1-.57-.48.48.48,0,0,1,0-.45c.45-.6,2.65-.57,2.9-.56a.11.11,0,0,1,.11.08.16.16,0,0,1,0,.16A8,8,0,0,1,301.69,355.37Zm-1.3-.59a.44.44,0,0,0-.15.12.15.15,0,0,0,0,.18.48.48,0,0,0,.38.33,3.1,3.1,0,0,0,1.92-1A6,6,0,0,0,300.39,354.78Z" style="fill:#6B63D7"></path><path d="M303,354.45h-.07c-.68,0-2.29-.49-2.46-1.1a.47.47,0,0,1,.25-.53.8.8,0,0,1,.6-.14c.86.13,1.7,1.5,1.73,1.58a.14.14,0,0,1-.05.19ZM300.88,353l-.06,0c-.15.11-.13.19-.12.22.1.36,1.19.81,1.92.9-.27-.38-.86-1.13-1.4-1.21a.5.5,0,0,0-.34.06Z" style="fill:#6B63D7"></path><polygon points="376.08 360.23 372.74 365.23 362.12 357.85 365.46 352.85 376.08 360.23" style="fill:#eec1bb"></polygon><path d="M371.88,364.91l3.55-5.87a.49.49,0,0,1,.58-.23l4.74,1.7a.87.87,0,0,1,.46,1.14.83.83,0,0,1-.09.16c-1.26,2-2,3-3.54,5.54-.95,1.56-5.26,7.63-7.36,8.86s-3.35-.71-2.63-1.48c3.64-3.87,4.32-6.85,4.06-8.8A1.58,1.58,0,0,1,371.88,364.91Z" style="fill:#263238"></path><polygon points="365.46 352.85 362.12 357.85 367.6 361.65 370.94 356.65 365.46 352.85" style="opacity:0.2;isolation:isolate"></polygon><path d="M371.65,367.14a1.9,1.9,0,0,1-.84.84.74.74,0,0,1-.73-.13.46.46,0,0,1-.2-.4c.09-.75,2-1.82,2.23-1.93a.12.12,0,0,1,.14,0,.16.16,0,0,1,0,.16A7.8,7.8,0,0,1,371.65,367.14Zm-1.43.14a.48.48,0,0,0-.06.18.17.17,0,0,0,.07.16.48.48,0,0,0,.5.09,3.11,3.11,0,0,0,1.2-1.77A6,6,0,0,0,370.22,367.28Z" style="fill:#6B63D7"></path><path d="M372.29,365.72l-.06,0c-.58.36-2.23.72-2.68.27a.47.47,0,0,1-.05-.58A.81.81,0,0,1,370,365c.8-.31,2.22.45,2.29.51a.12.12,0,0,1,.06.13A.1.1,0,0,1,372.29,365.72Zm-2.51-.2,0,.05c-.08.17,0,.23,0,.26.26.26,1.44.11,2.12-.18a3,3,0,0,0-1.82-.36.51.51,0,0,0-.27.23Z" style="fill:#6B63D7"></path><path d="M368.54,354.26l-.64,1-.54.84-3.17,4.81s-28.58-17.09-32-19.92-21.53-36.47-21.53-36.47h0c-.3.09-12.49,4-21.34,7.55-5.13,2.05-9.13,4-9.07,4.92.17,2.64,22.56,27.76,22.56,27.76l-5.91,3.81S260.29,324,261.37,312.61s37.9-24.72,37.9-24.72l.68-17,20.59,2.73,1.08.14,1.74.23c7.47,17.22,16.41,53.59,17.52,56.59S368.54,354.26,368.54,354.26Z" style="fill:#6B63D7"></path><path d="M367.9,355.23l-.54.84c-7.6-5.48-29.09-21.28-29.87-25.3s-14.87-50.27-16.95-57.11c-.17-.52-.25-.8-.26-.84l1-.29.39,1.27c2.54,8.32,16,52.61,16.85,56.78C339.06,333.57,355.59,346.36,367.9,355.23Z" style="fill:#fff"></path><path d="M251.17,237.24l-8.73-3.19a4.65,4.65,0,0,0-.71-2.22c-.65-.83-8.36-4.12-8.33-3s-.64,4,1.16,5.61,6.5,4,7.4,2.75l7.29,4.21Z" style="fill:#eec1bb"></path><path d="M285.9,255.36S280.54,254.22,275,253l-7.57-1.68c-6.5-1.5-21.19-8.29-21.7-10.19s1.24-5.86,3.86-5.64,18.25,5.35,18.25,5.35l14.85.2,1.52,6.83Z" style="fill:#6B63D7"></path><path d="M272.79,242.62a46.79,46.79,0,0,1-4.88,0c-.4-.07-1.67-.48-4.07-1.26-5.11-1.67-14.62-4.76-17.36-4.7l0-1c2.91-.06,12.17,2.95,17.69,4.75,1.93.62,3.59,1.16,3.94,1.23,1,.18,9.79-.1,15.47-.33l0,1C282.67,242.31,277.06,242.53,272.79,242.62Z" style="fill:#fff"></path><polygon points="245.33 234.44 248.4 235.68 245.69 240.73 243.81 239.47 245.33 234.44" style="fill:#6B63D7"></polygon><polygon points="245.33 234.44 248.4 235.68 245.69 240.73 243.81 239.47 245.33 234.44" style="opacity:0.2;isolation:isolate"></polygon><path d="M285.9,255.36S280.54,254.22,275,253c1.12-3.33,6.54-4.66,9.21-5.13Z" style="opacity:0.2;isolation:isolate"></path><path d="M325.22,269.88a2.46,2.46,0,0,1-1.69,2.57,2.34,2.34,0,0,1-.65.12l-.35,0-22.59,1.06a2.45,2.45,0,0,1-2.47-1.74,24.43,24.43,0,0,0-1.12-3A38.17,38.17,0,0,0,288,257.26c-1-1-2.14-2-3.38-3a9.36,9.36,0,0,1-3.58-6.81,10.49,10.49,0,0,1,1-5.13,11.1,11.1,0,0,1,.59-1.05l.13-.2s19-3.11,29.65.67A49.37,49.37,0,0,1,325.22,269.88Z" style="fill:#6B63D7"></path><path d="M323.53,272.45a5.19,5.19,0,0,1-.16,1.42l-1-.3a2.82,2.82,0,0,0,.12-1c.05-6.2-9.16-27.95-10.86-29-6.1-3-24.86-1.72-29.66-1.33a11.1,11.1,0,0,1,.59-1.05c5.76-.45,23.36-1.54,29.53,1.48C314,243.65,323.47,265.2,323.53,272.45Z" style="fill:#fff"></path><polygon points="298.97 273.05 324.5 271.84 325.49 275.64 299.15 276.89 298.97 273.05" style="fill:#6B63D7"></polygon><polygon points="298.97 273.05 324.5 271.84 325.49 275.64 299.15 276.89 298.97 273.05" style="opacity:0.2;isolation:isolate"></polygon><path d="M289.57,239.53c.66-1.23,9.12-3.16,10.13-2.33s.93,3.54.93,3.54-6,4.46-8.43,3.52S289.57,239.53,289.57,239.53Z" style="fill:#6B63D7"></path><path d="M289.57,239.53c.66-1.23,9.12-3.16,10.13-2.33s.93,3.54.93,3.54-6,4.46-8.43,3.52S289.57,239.53,289.57,239.53Z" style="opacity:0.4;isolation:isolate"></path><path d="M300.61,240.2c-.19,2.53-2.37,5.19-7.18,5.56-3,.24-3.67-1-3.55-1.81,1.52-1.06.73-1.13,1-2.28.35-1.82-.62-3.67-1.82-5.36l0-.06h0l3-5.54,2-3.83C294.76,231.12,296.82,238.65,300.61,240.2Z" style="fill:#eec1bb"></path><path d="M294.24,230.73a12.17,12.17,0,0,1-3.4,10.94c.35-1.82-.62-3.67-1.82-5.36,0,0,0-.06,0-.07l3-5.54C292.38,231.33,294.06,230,294.24,230.73Z" style="opacity:0.2;isolation:isolate"></path><path d="M289.57,239.53a3.36,3.36,0,0,0,3.32,2.05c2.5-.12,6.81-4.38,6.81-4.38l3.43,2.82s-5.52,7.11-9.64,7-5.43-4.48-5.43-4.48Z" style="fill:#6B63D7"></path><path d="M289.57,239.53a3.36,3.36,0,0,0,3.32,2.05c2.5-.12,6.81-4.38,6.81-4.38l3.43,2.82s-5.52,7.11-9.64,7-5.43-4.48-5.43-4.48Z" style="opacity:0.2;isolation:isolate"></path><path d="M304.73,276.72l-.93-3.62a4,4,0,0,1-1.49-2.63c-.38-1.46-1-3.91-4.31-8.77-5.56-8.21-5.1-14-5-14.72l-.6-5.35,1-.11L294,247v.06c0,.06-.75,5.84,4.84,14.09,3.39,5,4.05,7.55,4.44,9.08a3.07,3.07,0,0,0,1.26,2.18l.15.1,1,4Z" style="fill:#263238"></path><path d="M309.12,264.33c-2.67,2.48-8.74,3.9-12.77,4.6A38.17,38.17,0,0,0,288,257.26c4.35-.56,10.65-1.34,10.65-1.34,2.34-5.1,5.14-9.88,8.11-11.3,2.76-1.31,6.95,2.25,7.3,5.44S313.29,260.47,309.12,264.33Z" style="opacity:0.2;isolation:isolate"></path><path d="M282.48,217.15a4,4,0,0,1,2.1-5.46c3.8-1.9,14,.5,16.46,4.36s5.19,4.65,5.19,4.65a2.29,2.29,0,0,1-2.43,1.52,2.94,2.94,0,0,1,2.16,2.7,9,9,0,0,0-2.24,1.06c-.48.48,0,3-1.27,2.78s-1-.4-1.78,1-3.93,4.24-5.15,3.09-14.29-11.67-14.29-11.67S280.36,216.86,282.48,217.15Z" style="fill:#263238"></path><path d="M296.51,224.92c-.77,5-1.05,8.23-3.3,10.73a8.87,8.87,0,0,1-1,.95c-4.75,4-11.55.73-12.4-5.1a19.26,19.26,0,0,1-.16-3.2c.15-4.94,2.07-10.78,6.8-12.2a7.83,7.83,0,0,1,9.8,5.18A8,8,0,0,1,296.51,224.92Z" style="fill:#eec1bb"></path><path d="M287.7,225.7c0,.47-.33.82-.63.79s-.52-.43-.48-.9.33-.81.63-.78S287.74,225.23,287.7,225.7Z" style="fill:#263238"></path><path d="M282.44,225.21c0,.46-.33.82-.63.79s-.51-.44-.47-.9.33-.82.63-.79S282.48,224.77,282.44,225.21Z" style="fill:#263238"></path><path d="M284.09,225.59a16.55,16.55,0,0,1-2.6,3.77,2.75,2.75,0,0,0,2.2.63Z" style="fill:#d4827d"></path><path d="M289.75,223.71a.33.33,0,0,1-.29,0,2.18,2.18,0,0,0-1.94-.35.28.28,0,0,1-.36-.15.27.27,0,0,1,.15-.35h0a2.73,2.73,0,0,1,2.47.41.27.27,0,0,1,.07.38h0A.28.28,0,0,1,289.75,223.71Z" style="fill:#263238"></path><path d="M284.91,232.46h0a4.25,4.25,0,0,0,3.25-2.12.16.16,0,0,0-.07-.2.14.14,0,0,0-.19.06h0a4,4,0,0,1-3,2,.13.13,0,0,0-.13.15h0a.14.14,0,0,0,.15.13Z" style="fill:#263238"></path><path d="M280.43,221.94a.24.24,0,0,1-.09-.13.26.26,0,0,1,.23-.3h0a2.73,2.73,0,0,1,2.36.84.27.27,0,0,1,0,.38h0a.27.27,0,0,1-.38,0h0a2.19,2.19,0,0,0-1.88-.63A.3.3,0,0,1,280.43,221.94Z" style="fill:#263238"></path><path d="M283.09,218a3.12,3.12,0,0,1,2.65.87,30.33,30.33,0,0,1,5.36.13,3.26,3.26,0,0,1,2.34,2.53c.14.44-.72,1.27-.72,1.27s.07,5.27.1,6.73l2.06,4a23.78,23.78,0,0,0,4-12.5c.25-7.5-14.54-7.49-14.54-7.49Z" style="fill:#263238"></path><path d="M298.49,231.45a5.4,5.4,0,0,1-3.61,2.08c-1.9.24-2.56-1.53-1.8-3.18.69-1.45,2.51-3.38,4.3-2.84A2.43,2.43,0,0,1,298.49,231.45Z" style="fill:#eec1bb"></path><path d="M284.45,262.59l-9.81,1.12s-5.71-3.55-7-3.62-1.18,5.86.33,7,5.21,1.34,5.74,1.31,1.4-1.12,1.4-1.12l10-1.13Z" style="fill:#eec1bb"></path><path d="M304.28,264.41c-2.59.93-21.32,4.59-22.33,3.15l-.27-.38-.29-.47c-.95-1.56-1.9-3.86-.22-5.25,2-1.68,17.3-3.49,18.32-4.78s7.17-17.29,12.89-15a1.65,1.65,0,0,1,.32.18,2.14,2.14,0,0,1,.92,1.14C315.6,248,306.59,263.6,304.28,264.41Z" style="fill:#6B63D7"></path><path d="M313.62,243a29.24,29.24,0,0,1-1.26,4.83c-1.89,5.57-5.92,14-9,15.43-3.94,1.81-19.51,3.63-21.72,3.88l-.24,0-.05-.49-.06-.49c.18,0,17.65-2,21.66-3.83,2.4-1.1,6.29-8.56,8.43-14.85a18.76,18.76,0,0,0,1.28-5.64A2.14,2.14,0,0,1,313.62,243Z" style="fill:#fff"></path><polygon points="277.87 262.41 280.86 261.88 282.37 267.58 278.87 267.99 277.87 262.41" style="fill:#6B63D7"></polygon><polygon points="277.87 262.41 280.86 261.88 282.37 267.58 278.87 267.99 277.87 262.41" style="opacity:0.2;isolation:isolate"></polygon><polygon points="365.15 362.14 370.12 354.17 367.97 352.78 362.67 360.97 365.15 362.14" style="fill:#6B63D7"></polygon><polygon points="365.15 362.14 370.12 354.17 367.97 352.78 362.67 360.97 365.15 362.14" style="opacity:0.2;isolation:isolate"></polygon><polygon points="296.97 350.51 303.94 344.22 302.26 342.29 294.91 348.7 296.97 350.51" style="fill:#6B63D7"></polygon><polygon points="296.97 350.51 303.94 344.22 302.26 342.29 294.91 348.7 296.97 350.51" style="opacity:0.2;isolation:isolate"></polygon><path d="M310.65,304.49h0c-.3.09-12.49,4-21.34,7.55.87-9.61,15-15.52,15-15.52Z" style="opacity:0.2;isolation:isolate"></path></g></g><g id="freepik--Money--inject-1"><path d="M189.15,170.65c-2.37,11.47-18.59,29.27-43.51,12.26-6.08-4.15-8.57-9.06-8.83-14.1-.81-15.14,18.28-31.5,19.45-32.49l.06,0s-.8-7.16-6.33-8a5.62,5.62,0,0,1-1.44-.37c-3-1.32,1.44-4.77,1.44-4.77,3.56-2.77,7.12,2.7,9.49,2.14s5.15-4.51,6.73-2.93-.4,5.93,3.16,5.93,7.82-1.58,9,0,0,7,0,7-8.65-1.81-11,.92c0,0,20.43,19.39,21.84,31.42A9.37,9.37,0,0,1,189.15,170.65Z" style="fill:#6B63D7"></path><path d="M169.58,167.46l.5,3.68-3.3-.13-.41-3.64c-3.85-.35-7.6-1.51-9.66-3l1.57-2.93A18.86,18.86,0,0,0,166,164l-.64-5.76c-4.08-.88-8.4-2-8.54-5.57-.1-2.48,2.27-4.46,7.4-4.62l-.28-2.52,2.65.1.34,2.47a21.91,21.91,0,0,1,7,1.66l-.93,2.37a21.17,21.17,0,0,0-5.74-1.51l.69,5.06c4.06.86,8.6,2,9.41,5.86C178,164.58,175.65,167.2,169.58,167.46ZM165,155l-.5-4.43c-2.38.18-3.32,1-3.24,2.09S162.91,154.53,165,155Zm7.65,6.59c-.24-1.4-2-2.11-4.24-2.67l.71,5.12C171.85,163.86,172.86,162.89,172.65,161.63Z" style="fill:#fff"></path><path d="M178.42,135.35s-8.65-1.81-11,.92c-3.17-.63-9.1-1.77-11.08,0,0,0-.8-7.16-6.33-8a5.62,5.62,0,0,1-1.44-.37,4.22,4.22,0,0,1,1.83-1.61c4-1.78,6.33,4.75,9.1,3.76s4.75-4.15,6.53-2S175.6,127.74,178.42,135.35Z" style="opacity:0.2;isolation:isolate"></path><path d="M189.15,170.65c-2.37,11.47-18.59,29.27-43.51,12.26-6.08-4.15-8.57-9.06-8.83-14.1,1.49,1.6,3.26,2.39,7.05,2.33,6.52-.1,20.07-6.81,25.86-2.66s15.69,3.62,19.52-.79A9.37,9.37,0,0,1,189.15,170.65Z" style="opacity:0.2;isolation:isolate"></path><path d="M155.55,136.94s-2.59-1.5,2.35-2.89,13,1.3,11.22,3.92A15.58,15.58,0,0,0,155.55,136.94Z" style="fill:#263238"></path><path d="M163.48,135s1,7.71,3.62,6.52-1.81-5.2-1.81-5.2,6.16,3.8,6.75,1.15S164.72,133.46,163.48,135Zm3.17,5.24c-.54.39-1.43-3.06-1.43-3.06C165.37,137.27,167.2,139.79,166.65,140.19Zm3.89-3.17c-.38.6-3.44-1.38-3.44-1.38S170.92,136.43,170.54,137Z" style="fill:#263238"></path><path d="M166,136s5.51,3.4,8.43,3.59a1.1,1.1,0,0,1,0,.94s-6.6-2-8-3.64c0,0,3.19,5.13,5.68,3.64a1.62,1.62,0,0,1,.59.79s-.91.74-2.85,0-4.53-5-4.53-5Z" style="fill:#263238"></path></g><g id="freepik--Cliff--inject-1"><path d="M70.47,416.24l10.29-92.1L89.34,311l6.31-28.16s9-27.87,8.91-30.28,5.64-29.33,5.64-29.33l6-29.38,8.25-19,25.44-1.73,12.58,7.7,37.72,2.57L219,204.89l6.14,20.55,15.28,11.24,6.19,18.51,17.3,7.32,7.95,5.54-9,47.52,45.49,43.95,63.78,14.41,39.16,21.8,13.37,20.51Z" style="fill:#6B63D7"></path><path d="M424.65,416.24H70.47l10.29-92.1L89.34,311l6.31-28.16s9-27.87,8.91-30.28,5.64-29.33,5.64-29.33l4.54-22.41,1.41-7,8.25-19,25.44-1.73,12.58,7.7,37.72,2.57L219,204.89l6.14,20.55,15.28,11.24,6.19,18.51,17.3,7.32,7.95,5.54-9,47.52,45.49,43.95,43.32,9.79,20.46,4.63,14.34,8,24.82,13.81Z" style="fill:#fff;opacity:0.6000000000000001"></path><path d="M424.65,416.24H70.47l10.29-92.1-2.38,80.77,11,5,13.31-38.37v27l16.84,6.42,13.85-15.45,20.47-22.7,7.92-46-2.64-12,24.26-56.1v75.62l13.72,16.24V368l2.11,25.14L215,391.63,219.75,353l10.92-6.56,12.05-20.29,3,53.29,9.07,16.33,38.14-29.5,15.45-6.71,43.32,9.79c-12.08,2.9-36.52,8.89-36.71,10.09-.26,1.58,1.94,9.46,5.33,13.69s20.32,13.14,20.32,13.14l22.9-1.32,9.9-13.28,13.06-9.71,24.82,13.81h-32v9.18Z" style="opacity:0.2;isolation:isolate"></path><path d="M149.84,173.1l-11.32,29.73-2.08,39.45-9.53,42,19-47.72L158,218.39s-6.85-8.43-6.33-10.48,12.66-24.8,12.66-24.8Z" style="opacity:0.2;isolation:isolate"></path><path d="M104.66,347.68a2.23,2.23,0,0,1-.1.65C104.49,348.5,104.53,348.25,104.66,347.68Z" style="opacity:0.2;isolation:isolate"></path><path d="M107.72,257.28l7,8.72v45s-8.83,31.54-10.08,36.67c.29-4.36-2-26.94-2-26.94L89.34,311l6.31-28.16s9-27.87,8.91-30.28,5.64-29.33,5.64-29.33l4.54-22.41Z" style="opacity:0.2;isolation:isolate"></path><path d="M219,204.89l-10.55,38.36L202.87,249s-6.33,61.31-6.33,59.2S208.46,255,208.46,255L219,244.93l6.14-19.49Z" style="opacity:0.2;isolation:isolate"></path><path d="M246.62,255.19l-11.49,35v14.06l5.74-12.65s10.07-6,10.3-7.38,12.75-21.75,12.75-21.75Z" style="opacity:0.2;isolation:isolate"></path></g><g id="freepik--Plants--inject-1"><path d="M379.84,416.24h35.7s-7.11-10.88-10.14-9.5c-3.94,1.8-6.87-8.06-11.23-5.72-1.54.82-.79,3.46-1.76,4.52-1.6,1.75-3.63,1.41-5.57,2.37C383.06,409.8,381.71,412.3,379.84,416.24Z" style="fill:#263238"></path><path d="M411.64,413.21s-2.35-13.6-.73-15.6,1.9,7.42,1.9,7.42,5.44-19.64,8.92-19.75-4.13,17.05-4.13,17.05,14.87-24.31,19.2-22.05-15.57,23.81-15.57,23.81,10.88-9.36,13.27-6.71-12.07,10.72-12.07,10.72,6.38-1.43,6.37.69S418,414.41,411.64,413.21Z" style="fill:#6B63D7"></path><path d="M411.64,413.21s-2.35-13.6-.73-15.6,1.9,7.42,1.9,7.42,5.44-19.64,8.92-19.75-4.13,17.05-4.13,17.05,14.87-24.31,19.2-22.05-15.57,23.81-15.57,23.81,10.88-9.36,13.27-6.71-12.07,10.72-12.07,10.72,6.38-1.43,6.37.69S418,414.41,411.64,413.21Z" style="fill:#fff;opacity:0.2;isolation:isolate"></path><path d="M409.49,411.26s-11.17-2-12.26-3.84,6.28.63,6.28.63-13.66-9.76-12.76-12.48,12,8,12,8-14.59-18.37-11.62-21.07,14,18.76,14,18.76-4.17-11-1.45-12.16,4.88,12.37,4.88,12.37.7-5.34,2.34-4.74S412.23,406.66,409.49,411.26Z" style="fill:#6B63D7"></path><path d="M409.49,411.26s-11.17-2-12.26-3.84,6.28.63,6.28.63-13.66-9.76-12.76-12.48,12,8,12,8-14.59-18.37-11.62-21.07,14,18.76,14,18.76-4.17-11-1.45-12.16,4.88,12.37,4.88,12.37.7-5.34,2.34-4.74S412.23,406.66,409.49,411.26Z" style="fill:#fff;opacity:0.2;isolation:isolate"></path><path d="M408.65,409.78s-10.79-10.82-10.6-13.65,6.46,5.5,6.46,5.5-7.61-21.25-4.53-23.57,7.13,18.07,7.13,18.07-2-31.49,3.32-32.2,1.09,31.48,1.09,31.48,3.88-15.41,7.74-14.55-4.09,17.42-4.09,17.42,4.86-5.37,6.21-3.45S415.21,406.79,408.65,409.78Z" style="fill:#6B63D7"></path><path d="M408.65,409.78s-10.79-10.82-10.6-13.65,6.46,5.5,6.46,5.5-7.61-21.25-4.53-23.57,7.13,18.07,7.13,18.07-2-31.49,3.32-32.2,1.09,31.48,1.09,31.48,3.88-15.41,7.74-14.55-4.09,17.42-4.09,17.42,4.86-5.37,6.21-3.45S415.21,406.79,408.65,409.78Z" style="fill:#fff;opacity:0.4;isolation:isolate"></path><path d="M395.57,416.24H424s-5.67-8.67-8.08-7.57c-3.14,1.43-5.47-6.42-8.95-4.56-1.23.66-.63,2.76-1.4,3.6-1.28,1.4-2.9,1.13-4.44,1.9C398.13,411.11,397.06,413.1,395.57,416.24Z" style="fill:#263238"></path><path d="M395.57,416.24H424s-5.67-8.67-8.08-7.57c-3.14,1.43-5.47-6.42-8.95-4.56-1.23.66-.63,2.76-1.4,3.6-1.28,1.4-2.9,1.13-4.44,1.9C398.13,411.11,397.06,413.1,395.57,416.24Z" style="fill:#fff;opacity:0.2"></path><path d="M107.49,396.33s-10.67-39.11-19.34-51.5,5.23,28,5.23,28S81.24,347.08,77.43,347.9,90,376.51,90,376.51s-12.46-22.25-17.91-18.62S88,384.4,88,384.4,68.79,370,66.89,374,85.45,390.8,85.45,390.8,66,386.85,63.92,393.72s19.38,5.83,19.38,5.83-9.91-.44-11.79,6.72S97.52,410.83,107.49,396.33Z" style="fill:#6B63D7"></path><path d="M107.49,396.33s-10.67-39.11-19.34-51.5,5.23,28,5.23,28S81.24,347.08,77.43,347.9,90,376.51,90,376.51s-12.46-22.25-17.91-18.62S88,384.4,88,384.4,68.79,370,66.89,374,85.45,390.8,85.45,390.8,66,386.85,63.92,393.72s19.38,5.83,19.38,5.83-9.91-.44-11.79,6.72S97.52,410.83,107.49,396.33Z" style="fill:#fff;opacity:0.2;isolation:isolate"></path><path d="M112.94,407.64s-14.47-27.85-11.54-32.73,9.11,10.89,9.11,10.89-11.16-35.68-7.13-39.61,11.42,30.73,11.42,30.73-3.92-40.6,0-42.77,5.81,36.75,5.81,36.75,2.67-41.17,7.59-40.55,0,36.58,0,36.58,11-27.37,15.92-26.27S136.2,369,136.2,369s13-16.44,16.79-12.58-11.65,21.86-11.65,21.86S154.56,370,158,374.14s-13.85,13-13.85,13,14.08,3.65,13.1,7.16-13.1,3-13.1,3S138.87,422.26,112.94,407.64Z" style="fill:#6B63D7"></path><path d="M112.94,407.64s-14.47-27.85-11.54-32.73,9.11,10.89,9.11,10.89-11.16-35.68-7.13-39.61,11.42,30.73,11.42,30.73-3.92-40.6,0-42.77,5.81,36.75,5.81,36.75,2.67-41.17,7.59-40.55,0,36.58,0,36.58,11-27.37,15.92-26.27S136.2,369,136.2,369s13-16.44,16.79-12.58-11.65,21.86-11.65,21.86S154.56,370,158,374.14s-13.85,13-13.85,13,14.08,3.65,13.1,7.16-13.1,3-13.1,3S138.87,422.26,112.94,407.64Z" style="opacity:0.2;isolation:isolate"></path><path d="M81.83,341.08A2.2,2.2,0,1,0,84,338.89,2.19,2.19,0,0,0,81.83,341.08Z" style="fill:#6B63D7"></path><path d="M109.12,398.92a.51.51,0,0,1-.49-.41c-.08-.44-8.16-44.45-27.36-63.33a.5.5,0,0,1,.7-.71c19.43,19.1,27.57,63.42,27.65,63.86a.5.5,0,0,1-.41.59Z" style="fill:#6B63D7"></path><path d="M79.05,334.83a2.57,2.57,0,1,0,2.57-2.57A2.57,2.57,0,0,0,79.05,334.83Z" style="fill:#6B63D7"></path><path d="M87.3,355.53a2.2,2.2,0,1,0,2.2-2.2A2.19,2.19,0,0,0,87.3,355.53Z" style="fill:#6B63D7"></path><path d="M97,349.16a2.19,2.19,0,1,0,2.19-2.2A2.19,2.19,0,0,0,97,349.16Z" style="fill:#6B63D7"></path><circle cx="92.42" cy="363.48" r="2.19" style="fill:#6B63D7"></circle><path d="M100.25,360.34a2.2,2.2,0,1,0,2.19-2.2A2.19,2.19,0,0,0,100.25,360.34Z" style="fill:#6B63D7"></path><path d="M89.33,337.4a2.19,2.19,0,1,0,2.19-2.2A2.19,2.19,0,0,0,89.33,337.4Z" style="fill:#6B63D7"></path><path d="M92,348.65,81.5,346a.49.49,0,0,1-.36-.6.51.51,0,0,1,.6-.37l9.28,2.3v-10a.5.5,0,0,1,1,0Z" style="fill:#6B63D7"></path><path d="M96.72,358.09l-7.33-1.64a.5.5,0,0,1,.21-1l6.46,1.45,2.7-7.92a.5.5,0,1,1,.94.32Z" style="fill:#6B63D7"></path><path d="M100.46,367.28l-8.23-3.34a.5.5,0,1,1,.38-.92l7.26,3,2.1-5.8a.5.5,0,0,1,.64-.3.49.49,0,0,1,.3.64Z" style="fill:#6B63D7"></path><path d="M135.36,410.49a.52.52,0,0,1-.29-.09.51.51,0,0,1-.11-.7c10.36-14.3,23.17-29.91,39.67-37.27a.5.5,0,0,1,.66.26.51.51,0,0,1-.25.66c-16.28,7.25-29,22.74-39.27,36.93A.49.49,0,0,1,135.36,410.49Z" style="fill:#6B63D7"></path><path d="M177.24,373.79a2.57,2.57,0,1,1-1.51-3.31A2.58,2.58,0,0,1,177.24,373.79Z" style="fill:#6B63D7"></path><path d="M162.26,390.29a2.19,2.19,0,1,1-1.28-2.83A2.19,2.19,0,0,1,162.26,390.29Z" style="fill:#6B63D7"></path><path d="M155.38,380.91a2.19,2.19,0,1,1-4.11-1.54,2.19,2.19,0,0,1,4.11,1.54Z" style="fill:#6B63D7"></path><path d="M156.73,396.71a2.19,2.19,0,0,1-2.82,1.29,2.19,2.19,0,1,1,1.54-4.11A2.19,2.19,0,0,1,156.73,396.71Z" style="fill:#6B63D7"></path><path d="M148.45,390.25a2.19,2.19,0,1,1-1.29-2.82A2.19,2.19,0,0,1,148.45,390.25Z" style="fill:#6B63D7"></path><path d="M166.72,372.6a2.19,2.19,0,1,1-1.29-2.83A2.19,2.19,0,0,1,166.72,372.6Z" style="fill:#6B63D7"></path><path d="M171.07,383.44H171l-10.76-1.25,3.95-10.54a.5.5,0,1,1,.93.35l-3.49,9.35,9.49,1.1a.5.5,0,0,1-.06,1Z" style="fill:#6B63D7"></path><path d="M160.05,390.42H160l-7.45-1,.28-9.27a.53.53,0,0,1,.52-.48.5.5,0,0,1,.48.52l-.25,8.36,6.55.91a.49.49,0,0,1,.43.56A.51.51,0,0,1,160.05,390.42Z" style="fill:#6B63D7"></path><path d="M145.82,396.69l.07-7.21a.51.51,0,0,1,.5-.49h0a.49.49,0,0,1,.49.5l-.06,6.17,7.84-.22a.52.52,0,0,1,.51.49.49.49,0,0,1-.49.51Z" style="fill:#6B63D7"></path><path d="M177.28,416.23H60.1s29.63-9.67,30.38-12.41.71-4.64,4.33-7,8.56-3.85,9.94-6.46,5.63-6.82,7.1-8.05,19.05,7.61,19.26,7.81,5.09,9.79,6.76,11.94,13.17-.47,15.92,1.79,12,8.13,12,8.13S170.29,411.32,177.28,416.23Z" style="fill:#263238"></path><path d="M177.28,416.23H60.1s29.63-9.67,30.38-12.41.71-4.64,4.33-7,8.56-3.85,9.94-6.46,5.63-6.82,7.1-8.05,19.05,7.61,19.26,7.81,5.09,9.79,6.76,11.94,13.17-.47,15.92,1.79,12,8.13,12,8.13S170.29,411.32,177.28,416.23Z" style="fill:#fff;opacity:0.2"></path><path d="M207,396.22s3.68-.2,4-10.26-6.12-12.75-11.11-11.52c0,0,.73-7.16-2.5-6.9s-3,5-3,5-1.11-10.16-5.52-10.17,0,12,0,12-6.1-2.93-8.34,0,2.8,6.37,2.8,6.37-7.92,2.58-4.61,10.79c0,0-5.51.86-7.06,4.53,0,0,.44-7.41-1.54-6.91s-1.55,7-1.55,7-3.3-7.15-6.17-4.62,1.32,8.57,1.32,8.57-5.51-2.68-6.4.87,3.09,4.87,3.09,4.87-5.74-1.32-5.74,5.26c0,0-11-1.05-13.67,4.86h65.74Z" style="fill:#263238"></path><path d="M207,396.22s3.68-.2,4-10.26-6.12-12.75-11.11-11.52c0,0,.73-7.16-2.5-6.9s-3,5-3,5-1.11-10.16-5.52-10.17,0,12,0,12-6.1-2.93-8.34,0,2.8,6.37,2.8,6.37-7.92,2.58-4.61,10.79c0,0-5.51.86-7.06,4.53,0,0,.44-7.41-1.54-6.91s-1.55,7-1.55,7-3.3-7.15-6.17-4.62,1.32,8.57,1.32,8.57-5.51-2.68-6.4.87,3.09,4.87,3.09,4.87-5.74-1.32-5.74,5.26c0,0-11-1.05-13.67,4.86h65.74Z" style="fill:#fff;opacity:0.30000000000000004;isolation:isolate"></path><polygon points="187.63 416.03 284.36 416.03 282.96 410.62 274.6 407.6 282.96 396.03 277.32 383.28 261.3 383.96 264.34 363.84 260.62 354.98 247.65 353.27 250.72 339.97 245.73 327.02 238.05 327.02 214.85 367.45 213.24 362.48 207.1 357.02 200.59 363.84 187.63 416.03" style="fill:#6B63D7"></polygon><polygon points="187.63 416.03 284.36 416.03 282.96 410.62 274.6 407.6 282.96 396.03 274.25 397.56 259.25 406.7 263.12 392.31 261.3 383.96 256.98 378.9 242.65 393.27 251.06 388.71 253.11 392.08 248.56 408.31 233.55 410.54 223.32 406.13 223.55 389.94 231.05 385.71 238.05 393.27 245.73 357.97 235.99 376.62 230.14 371.52 219.68 375.71 214.85 367.45 213.24 362.48 214.07 388.49 211.27 403.54 207.1 398.94 201.49 397.56 187.63 416.03" style="opacity:0.2;isolation:isolate"></polygon><path d="M184,415.8s-4.86-11.83-4.07-14.28,4.45,6.23,4.45,6.23-2-20.28,1.19-21.63,2.3,17.38,2.3,17.38,5.09-28,9.94-27.49-5.92,27.83-5.92,27.83,6.77-12.66,10-11.06-7.39,14.36-7.39,14.36,5.43-3.64,6.19-1.66S190.34,414.62,184,415.8Z" style="fill:#263238"></path><path d="M184,415.8s-4.86-11.83-4.07-14.28,4.45,6.23,4.45,6.23-2-20.28,1.19-21.63,2.3,17.38,2.3,17.38,5.09-28,9.94-27.49-5.92,27.83-5.92,27.83,6.77-12.66,10-11.06-7.39,14.36-7.39,14.36,5.43-3.64,6.19-1.66S190.34,414.62,184,415.8Z" style="fill:#fff;opacity:0.2;isolation:isolate"></path><path d="M184,415.8s-11.62,1.11-13.28-.19,6.07-1.68,6.07-1.68-16.26-4.17-16.4-7,14.1,3.13,14.1,3.13S154.19,398.17,156,394.58,175.84,407,175.84,407s-7.88-8.8-5.75-10.82,9,9.77,9,9.77-1.29-5.23.46-5.26S184.84,410.52,184,415.8Z" style="fill:#263238"></path><path d="M184,415.8s-11.62,1.11-13.28-.19,6.07-1.68,6.07-1.68-16.26-4.17-16.4-7,14.1,3.13,14.1,3.13S154.19,398.17,156,394.58,175.84,407,175.84,407s-7.88-8.8-5.75-10.82,9,9.77,9,9.77-1.29-5.23.46-5.26S184.84,410.52,184,415.8Z" style="fill:#fff;opacity:0.2;isolation:isolate"></path><path d="M184,415.8s-15.75-8.31-16.6-11,8,2.8,8,2.8-14.77-17.07-12.73-20.34,13.17,14.27,13.17,14.27-13.27-28.63-8.53-31.23,12.39,29,12.39,29-1.95-15.78,2-16.36,2.48,17.71,2.48,17.71,2.59-6.76,4.55-5.45S189,410.65,184,415.8Z" style="fill:#263238"></path><path d="M184,415.8s-15.75-8.31-16.6-11,8,2.8,8,2.8-14.77-17.07-12.73-20.34,13.17,14.27,13.17,14.27-13.27-28.63-8.53-31.23,12.39,29,12.39,29-1.95-15.78,2-16.36,2.48,17.71,2.48,17.71,2.59-6.76,4.55-5.45S189,410.65,184,415.8Z" style="fill:#fff;opacity:0.4;isolation:isolate"></path></g></svg>