<svg xmlns="http://www.w3.org/2000/svg" viewBox="0 0 500 500"><g id="freepik--background-complete--inject-120"><rect x="416.78" y="398.49" width="33.12" height="0.25" style="fill:#ebebeb"></rect><rect x="322.53" y="401.21" width="8.69" height="0.25" style="fill:#ebebeb"></rect><rect x="396.59" y="389.21" width="19.19" height="0.25" style="fill:#ebebeb"></rect><rect x="52.46" y="390.89" width="43.19" height="0.25" style="fill:#ebebeb"></rect><rect x="104.56" y="390.89" width="6.33" height="0.25" style="fill:#ebebeb"></rect><rect x="131.47" y="395.11" width="93.68" height="0.25" style="fill:#ebebeb"></rect><path d="M238.4,337.8H45.3a5.71,5.71,0,0,1-5.71-5.71V60.66A5.71,5.71,0,0,1,45.3,55H238.4a5.71,5.71,0,0,1,5.71,5.71V332.09A5.71,5.71,0,0,1,238.4,337.8ZM45.3,55.2a5.47,5.47,0,0,0-5.46,5.46V332.09a5.47,5.47,0,0,0,5.46,5.46H238.4a5.47,5.47,0,0,0,5.46-5.46V60.66a5.47,5.47,0,0,0-5.46-5.46Z" style="fill:#ebebeb"></path><path d="M454.7,337.8H261.6a5.71,5.71,0,0,1-5.71-5.71V60.66A5.71,5.71,0,0,1,261.6,55H454.7a5.71,5.71,0,0,1,5.71,5.71V332.09A5.71,5.71,0,0,1,454.7,337.8ZM261.6,55.2a5.47,5.47,0,0,0-5.46,5.46V332.09a5.47,5.47,0,0,0,5.46,5.46H454.7a5.47,5.47,0,0,0,5.46-5.46V60.66a5.47,5.47,0,0,0-5.46-5.46Z" style="fill:#ebebeb"></path><rect y="382.4" width="500" height="0.25" style="fill:#ebebeb"></rect><path d="M412.38,356.07l-.76.09c-.05-.39-4.67-39,4.86-70.64,9.47-31.39,2.95-51.4,2.88-51.6l.73-.25c.07.21,6.67,20.45-2.87,52.08C407.73,317.18,412.33,355.68,412.38,356.07Z" style="fill:#e0e0e0"></path><path d="M420.72,238.23a11.91,11.91,0,0,0-6.42-4l.18-.75a12.77,12.77,0,0,1,6.83,4.21Z" style="fill:#e0e0e0"></path><rect x="421.81" y="242.01" width="2.52" height="0.77" transform="translate(-64.51 239.5) rotate(-29.47)" style="fill:#e0e0e0"></rect><path d="M419.9,259.25a18.24,18.24,0,0,0-9.87-9.57l.29-.72a19,19,0,0,1,10.28,10Z" style="fill:#e0e0e0"></path><path d="M417.84,283.4h-.77a10.54,10.54,0,0,0-4-8.07l.48-.6A11.29,11.29,0,0,1,417.84,283.4Z" style="fill:#e0e0e0"></path><path d="M416.13,289.57l-.72-.28a7.7,7.7,0,0,1,4.37-4.3l.27.72A6.89,6.89,0,0,0,416.13,289.57Z" style="fill:#e0e0e0"></path><path d="M411.16,328.76l-.59-.49c.93-1.13,1.64-5.41,2-7.72.09-.55.16-1,.23-1.35l.75.14c-.06.33-.14.8-.23,1.34C412.78,324.12,412.14,327.57,411.16,328.76Z" style="fill:#e0e0e0"></path><path d="M410.71,341.06a7.54,7.54,0,0,0-7.32-5.05l0-.77a8.35,8.35,0,0,1,8.08,5.58Z" style="fill:#e0e0e0"></path><rect x="410.11" y="351.97" width="8.11" height="0.77" transform="translate(-124.54 426.42) rotate(-48.22)" style="fill:#e0e0e0"></rect><path d="M420.4,309.63c1.22,4-7.32,11.52-7.32,11.52s-11.32-1.42-12.54-5.38,1.64-10.46,7.12-12.15S419.17,305.67,420.4,309.63Z" style="fill:#f0f0f0"></path><path d="M429.88,261.51c-1.08,4.21-9.18,7.2-9.18,7.2s-5.64-6.53-4.55-10.74,5.55-8.85,9.35-7.87S431,257.3,429.88,261.51Z" style="fill:#ebebeb"></path><path d="M397.41,324.44c5.08,2,8.19,11,8.19,11s-8.37,4.51-13.45,2.53-10.46-7.55-9-11.28S392.33,322.46,397.41,324.44Z" style="fill:#f5f5f5"></path><path d="M408.55,275a10.68,10.68,0,0,0,3.47,2,3.68,3.68,0,0,0,3.71-.87c1.08-1.26.79-3.2.11-4.71-1.36-3-6.37-8.06-10.22-6.61C400.07,266.88,406.07,273.16,408.55,275Z" style="fill:#e6e6e6"></path><path d="M419.91,282.62c-.73.91-1.5,2-1.1,3.13a2.33,2.33,0,0,0,2.56,1.26,6.87,6.87,0,0,0,2.75-1.35c2-1.36,6-4.21,3.41-6.88S421.45,280.72,419.91,282.62Z" style="fill:#ebebeb"></path><path d="M403.51,244.61a2,2,0,0,0-1.83,1.49c-.16,1,.64,1.82,1.42,2.42,1.95,1.5,7.8,5.55,9.11,1.65C413.44,246.48,406.1,244.33,403.51,244.61Z" style="fill:#e0e0e0"></path><path d="M414.3,231.77c-1.21.11-2.41-.33-3.62-.25s-2.56,1-2.29,2.23,1.61,1.46,2.73,1.53a21.79,21.79,0,0,0,5.7-.39,1.74,1.74,0,0,0,1.16-.59c.49-.72-.29-1.68-1.12-1.94a12.45,12.45,0,0,1-2.53-.6Z" style="fill:#e6e6e6"></path><path d="M426.09,240.07c1.21,0,2.39-.48,3.6-.48s2.62.88,2.42,2.07-1.5,1.56-2.61,1.71a21.9,21.9,0,0,1-5.72,0,1.78,1.78,0,0,1-1.2-.51c-.53-.68.18-1.7,1-2a12.09,12.09,0,0,0,2.48-.76Z" style="fill:#f0f0f0"></path><path d="M424.9,329.36a1.72,1.72,0,0,1,1-.51,1.17,1.17,0,0,1,1,1,3.36,3.36,0,0,1-.2,1.53c-.82,2.74-10,22.65-12.16,19.07-1.26-2.11,1.83-9.11,2.74-11.09A28.82,28.82,0,0,1,424.9,329.36Z" style="fill:#f0f0f0"></path><path d="M419.38,232.52a10.45,10.45,0,0,1,3-4.42c1.46-1,3.79-1.13,4.85.32,1.18,1.62,0,4.09-1.82,5s-3.94.61-5.93.33c0-.3,0-.6,0-.89Z" style="fill:#e6e6e6"></path><path d="M425.83,382.62h0a89.49,89.49,0,0,1-29.84,0h0l-11.61-34.25h53.05Z" style="fill:#f0f0f0"></path><path d="M400.15,113c-.45-5.09,2.21-8.5,6.64-8.5s7.73,3.37,8.18,8.5-2.27,8.49-6.69,8.49S400.59,118,400.15,113Zm11.19,0c-.3-3.45-1.89-5.4-4.28-5.4s-3.63,2-3.33,5.4,2,5.39,4.28,5.39S411.64,116.41,411.34,113Zm14.06-8.19h4.33l-18.43,31H407Zm-3.67,22.79c-.45-5.09,2.22-8.5,6.65-8.5s7.73,3.41,8.17,8.5-2.26,8.49-6.69,8.49S422.17,132.65,421.73,127.56Zm11.19,0c-.3-3.41-1.93-5.4-4.27-5.4s-3.64,2-3.34,5.4,1.94,5.4,4.28,5.4S433.22,131,432.92,127.56Z" style="fill:#e6e6e6"></path><circle cx="248.57" cy="172.7" r="16.54" transform="translate(-20.46 34.01) rotate(-7.52)" style="fill:#e0e0e0"></circle><path d="M266.47,167.92a16.54,16.54,0,1,1-20.25-11.72A16.55,16.55,0,0,1,266.47,167.92Z" style="fill:#e6e6e6"></path><circle cx="250.48" cy="172.18" r="12.38" style="fill:#f0f0f0"></circle><path d="M256.42,173.33c1.16,2.52-.18,4.77-3.38,5.92l.53,2.21-2,.53-.53-2.21a11.35,11.35,0,0,1-5.25-.24l.25-2.7a9.3,9.3,0,0,0,4.38.34l-.81-3.38c-2.09,0-4.45-.2-5.51-2.49-1.17-2.52.21-4.81,3.48-5.94l-.53-2.2,2-.53.54,2.22a10.28,10.28,0,0,1,4.16.11l-.12,2.67a7.92,7.92,0,0,0-3.42-.19l.85,3.52C253.12,171,255.41,171.15,256.42,173.33Zm-7.5-2.39-.69-2.88c-1,.51-1.4,1.26-1.08,2S248.07,170.85,248.92,170.94Zm4.5,3.74c-.25-.55-.87-.77-1.68-.83l.67,2.74C253.39,176.09,253.76,175.4,253.42,174.68Z" style="fill:#e0e0e0"></path><circle cx="88.19" cy="131.2" r="23.27" transform="translate(-63.09 177.1) rotate(-72.97)" style="fill:#e0e0e0"></circle><circle cx="90.98" cy="131.19" r="23.27" transform="translate(-66.12 102.76) rotate(-45)" style="fill:#e6e6e6"></circle><circle cx="90.98" cy="131.19" r="17.41" transform="translate(-66.12 102.76) rotate(-45)" style="fill:#f0f0f0"></circle><path d="M98.64,134.87c.69,3.85-1.94,6.43-6.71,6.85l-.06,3.19H89l.07-3.18A16,16,0,0,1,82,139.53l1.3-3.59a13.27,13.27,0,0,0,5.84,2l.11-4.89c-2.84-.8-6-1.86-6.61-5.36-.68-3.85,2-6.46,6.86-6.83l.07-3.18h2.9l-.07,3.21A14.62,14.62,0,0,1,98,122.54l-1.12,3.59a11.18,11.18,0,0,0-4.58-1.48l-.1,5.09C95,130.51,98.05,131.54,98.64,134.87Zm-9.34-5.93.09-4.17C87.8,125.1,87,126,87.2,127.1,87.36,128,88.18,128.51,89.3,128.94Zm4.79,6.7c-.15-.84-.91-1.36-2-1.73l-.07,4C93.53,137.55,94.29,136.74,94.09,135.64Z" style="fill:#e0e0e0"></path><path d="M62.57,289.29q5.38,14.5,10.78,29c22.85-.57,37.94-22,60.79-22.59q-5.38-14.51-10.78-29C100.51,267.27,85.42,288.72,62.57,289.29Z" style="fill:#e6e6e6"></path><path d="M66.22,291.64q4.5,12.11,9,24.19c20.6-2,35.08-20.49,55.75-22.3l-9-24.18C101.3,271.16,86.82,289.63,66.22,291.64Z" style="fill:#fafafa"></path><path d="M107.2,287.55a10.93,10.93,0,0,1-4.79,12.78,7.37,7.37,0,0,1-11-3.9,11,11,0,0,1,4.76-12.86A7.43,7.43,0,0,1,107.2,287.55Z" style="fill:#e0e0e0"></path><path d="M105.19,288.61a8.21,8.21,0,0,1-3.57,9.61,5.5,5.5,0,0,1-8.21-2.89A8.25,8.25,0,0,1,97,285.68,5.52,5.52,0,0,1,105.19,288.61Z" style="fill:#f5f5f5"></path><path d="M102.37,291.8c.74,1.25.19,2.69-1.36,3.77.13.38.27.77.4,1.16l-1,.56c-.13-.38-.26-.77-.4-1.16a5.41,5.41,0,0,1-2.67.58c0-.52,0-1,0-1.55a4.51,4.51,0,0,0,2.24-.4c-.2-.6-.41-1.19-.61-1.79-1.06.26-2.27.49-2.94-.65s-.18-2.72,1.41-3.8c-.13-.39-.27-.77-.4-1.16l1-.57.4,1.18a4.84,4.84,0,0,1,2.12-.5c0,.5.06,1,.1,1.51a3.84,3.84,0,0,0-1.75.35l.64,1.86C100.56,290.92,101.73,290.71,102.37,291.8Zm-3.94-.34c-.18-.5-.35-1-.53-1.52-.49.43-.63.9-.43,1.26S98,291.53,98.43,291.46Zm2.5,1.49c-.16-.27-.49-.31-.9-.24.17.48.33,1,.5,1.45C101,293.75,101.14,293.31,100.93,293Z" style="fill:#e0e0e0"></path><path d="M89.1,296.76c1.64,4.39-.41,9.85-4.83,11.5s-9.59-1.32-11.24-5.74.89-8.58,5.3-10.26S87.45,292.32,89.1,296.76Z" style="fill:#fff"></path><path d="M125.65,280.62c1.64,4.42-1,8.32-5.47,9.79s-9.24-.36-10.89-4.8.45-9.76,4.94-11.2S124,276.21,125.65,280.62Z" style="fill:#fff"></path><path d="M66.22,291.64l1,2.73h0A2,2,0,0,0,69,291.59l-.11-.3C68,291.44,67.11,291.56,66.22,291.64Z" style="fill:#ebebeb"></path><path d="M74.2,313.1c.33.91.67,1.82,1,2.73.89-.09,1.77-.21,2.64-.35l-.11-.3a3.48,3.48,0,0,0-3.54-2.08Z" style="fill:#ebebeb"></path><path d="M128.21,293.56l.11.3q1.31-.21,2.64-.33c-.33-.91-.67-1.82-1-2.73h0A2,2,0,0,0,128.21,293.56Z" style="fill:#ebebeb"></path><path d="M119.33,269.67c0,.1.07.2.11.3a3.55,3.55,0,0,0,3.55,2.11h0l-1-2.73C121.08,269.43,120.2,269.54,119.33,269.67Z" style="fill:#ebebeb"></path><path d="M64.91,250.77l-2.34,30.85c21,9,43.67-4.13,64.66,4.91q1.19-15.42,2.35-30.85C108.58,246.64,85.9,259.81,64.91,250.77Z" style="fill:#e6e6e6"></path><path d="M67.24,254.44l-1.95,25.72c19.55,6.78,40.43-3.93,60,3.07l1.95-25.72C107.68,250.5,86.79,261.22,67.24,254.44Z" style="fill:#fafafa"></path><path d="M106.17,267.86a10.91,10.91,0,0,1-9.7,9.6,7.37,7.37,0,0,1-8.35-8.14,11,11,0,0,1,9.71-9.69A7.42,7.42,0,0,1,106.17,267.86Z" style="fill:#e0e0e0"></path><path d="M103.91,268a8.22,8.22,0,0,1-7.27,7.24,5.5,5.5,0,0,1-6.25-6.06,8.28,8.28,0,0,1,7.27-7.29A5.54,5.54,0,0,1,103.91,268Z" style="fill:#f5f5f5"></path><path d="M100,269.7c.15,1.45-1,2.52-2.81,2.85l-.12,1.22-1.13.11c0-.41.08-.81.13-1.22a5.59,5.59,0,0,1-2.68-.6c.21-.47.41-.95.62-1.42a4.45,4.45,0,0,0,2.2.57c.07-.62.13-1.25.19-1.88-1.07-.2-2.26-.5-2.4-1.82s1-2.55,2.87-2.86c.05-.41.09-.81.13-1.22l1.12-.11L98,264.56a5,5,0,0,1,2.13.43c-.18.47-.36.94-.55,1.42a3.72,3.72,0,0,0-1.73-.42c-.06.65-.13,1.31-.19,2C98.73,268.15,99.88,268.44,100,269.7Zm-3.44-2c.05-.53.11-1.06.16-1.6-.63.18-1,.55-.92,1S96.15,267.62,96.57,267.74Zm1.65,2.4c0-.31-.31-.49-.72-.59l-.15,1.52C98,270.9,98.26,270.56,98.22,270.14Z" style="fill:#e0e0e0"></path><path d="M85.89,268.65c-.36,4.68-4.5,8.78-9.2,8.43s-8.17-5.21-7.81-9.91,4.4-7.43,9.1-7.11S86.24,263.93,85.89,268.65Z" style="fill:#fff"></path><path d="M125.83,269.29c-.36,4.7-4.38,7.14-9.06,6.6s-8.24-4.19-7.89-8.92,4.5-8.68,9.18-8.1S126.18,264.59,125.83,269.29Z" style="fill:#fff"></path><path d="M67.24,254.44c-.07,1-.14,1.93-.22,2.9h0a2,2,0,0,0,2.74-1.81l0-.31Q68.51,254.88,67.24,254.44Z" style="fill:#ebebeb"></path><path d="M65.51,277.26l-.22,2.9c.84.29,1.69.55,2.54.78l0-.31a3.49,3.49,0,0,0-2.35-3.37Z" style="fill:#ebebeb"></path><path d="M122.74,282.11l0,.31c.85.24,1.69.51,2.54.81l.22-2.9h0A2,2,0,0,0,122.74,282.11Z" style="fill:#ebebeb"></path><path d="M124.67,256.7l0,.31a3.54,3.54,0,0,0,2.34,3.4h0c.07-1,.15-1.93.22-2.9C126.37,257.21,125.52,256.94,124.67,256.7Z" style="fill:#ebebeb"></path><path d="M80.35,218.07,67.09,246c16.35,16,42.25,11.82,58.6,27.79L139,245.87C122.6,229.89,96.7,234.05,80.35,218.07Z" style="fill:#e6e6e6"></path><path d="M81.21,222.33l-11,23.31C86,259,109.31,256.48,125,270l11.05-23.31C120.36,233.17,97,235.68,81.21,222.33Z" style="fill:#fafafa"></path><path d="M112.73,248.83a10.92,10.92,0,0,1-12.5,5.49,7.38,7.38,0,0,1-4.87-10.6,11,11,0,0,1,12.54-5.56A7.43,7.43,0,0,1,112.73,248.83Z" style="fill:#e0e0e0"></path><path d="M110.57,248.14a8.22,8.22,0,0,1-9.37,4.15,5.5,5.5,0,0,1-3.66-7.91,8.27,8.27,0,0,1,9.39-4.19A5.53,5.53,0,0,1,110.57,248.14Z" style="fill:#f5f5f5"></path><path d="M106.32,248.34c-.38,1.41-1.79,2-3.65,1.65l-.55,1.1-1.09-.3.56-1.1a5.4,5.4,0,0,1-2.28-1.52l1.08-1.1a4.45,4.45,0,0,0,1.85,1.32l.85-1.68c-.93-.58-1.93-1.28-1.58-2.56s1.82-2,3.7-1.64l.56-1.1,1.08.31c-.18.37-.37.73-.55,1.1a5,5,0,0,1,1.83,1.17l-1,1.13a3.83,3.83,0,0,0-1.47-1l-.88,1.76C105.68,246.43,106.65,247.12,106.32,248.34Zm-2.51-3.06c.24-.48.48-1,.73-1.44-.66-.05-1.09.18-1.21.58S103.46,245,103.81,245.28Zm.68,2.83c.08-.3-.12-.56-.46-.81-.23.46-.46.91-.68,1.37C104,248.72,104.38,248.52,104.49,248.11Z" style="fill:#e0e0e0"></path><path d="M93.51,242.29c-2,4.24-7.35,6.58-11.61,4.57s-5.75-7.8-3.73-12.06,6.77-5.35,11-3.36S95.54,238,93.51,242.29Z" style="fill:#fff"></path><path d="M130.56,257.22c-2,4.26-6.64,5.1-10.82,2.91s-6.19-6.87-4.16-11.15,7.31-6.49,11.47-4.27S132.58,253,130.56,257.22Z" style="fill:#fff"></path><path d="M81.21,222.33c-.41.88-.83,1.76-1.25,2.63h0a2,2,0,0,0,3.21-.7l.14-.28C82.59,223.46,81.9,222.91,81.21,222.33Z" style="fill:#ebebeb"></path><path d="M71.4,243c-.41.88-.83,1.76-1.24,2.63.68.58,1.38,1.13,2.09,1.65l.13-.28a3.49,3.49,0,0,0-1-4Z" style="fill:#ebebeb"></path><path d="M123.08,268.08l-.13.29c.7.52,1.4,1.08,2.08,1.67.41-.88.83-1.76,1.24-2.63h0A2,2,0,0,0,123.08,268.08Z" style="fill:#ebebeb"></path><path d="M134,245.06l-.13.28a3.54,3.54,0,0,0,1,4h0c.41-.88.83-1.76,1.24-2.63C135.4,246.14,134.71,245.58,134,245.06Z" style="fill:#ebebeb"></path></g><g id="freepik--Shadow--inject-120"><ellipse id="freepik--path--inject-120" cx="250" cy="415.69" rx="193.89" ry="11.32" style="fill:#f5f5f5"></ellipse></g><g id="freepik--Clipboard--inject-120"><path d="M396.89,279.13H273.71a10.21,10.21,0,0,1-10-9.38L250.91,87.16a8.63,8.63,0,0,1,8.72-9.37H382.81a10.21,10.21,0,0,1,10,9.37l12.77,182.59A8.63,8.63,0,0,1,396.89,279.13Z"></path><path d="M396.89,279.13H273.71a10.21,10.21,0,0,1-10-9.38L250.91,87.16a8.63,8.63,0,0,1,8.72-9.37H382.81a10.21,10.21,0,0,1,10,9.37l12.77,182.59A8.63,8.63,0,0,1,396.89,279.13Z" style="fill:#fff;opacity:0.7000000000000001"></path><polygon points="398.52 272.63 270.44 272.63 257.26 84.08 385.33 84.08 398.52 272.63" style="fill:#fff"></polygon><path d="M347.5,88.38h-52l-.87-12.32a8.16,8.16,0,0,1,8.25-8.87h34.28a9.66,9.66,0,0,1,9.49,8.87Z" style="fill:#6B63D7"></path><text transform="matrix(1, 0, 0.07, 1, 268.63, 111.75)" style="font-size:23.005020141601562px;font-family:Montserrat-SemiBold, Montserrat;font-weight:600"><tspan style="letter-spacing:-0.07297976941390864em">T</tspan><tspan x="12.15" y="0">AX</tspan></text><polygon points="375 124.35 273.39 124.35 273.1 120.11 374.7 120.11 375 124.35"></polygon><polygon points="379.58 189.89 277.98 189.89 277.68 185.65 379.28 185.65 379.58 189.89"></polygon><path d="M377.52,153.28h-9.14l-.64-9.14h9.14Zm-8.21-1h7.14l-.5-7.14h-7.14Z"></path><rect x="273.85" y="130.1" width="101.6" height="1.5"></rect><rect x="274.33" y="137.25" width="101.6" height="1"></rect><rect x="274.81" y="144.14" width="37.47" height="1"></rect><rect x="318.86" y="107.07" width="1" height="88.19" transform="matrix(0, -1, 1, 0, 167.82, 470.34)"></rect><path d="M332.07,163.65h-5l-.35-5h5Zm-4.11-1h3l-.21-3h-3Z"></path><path d="M332.51,169.87h-5.05l-.35-5.05h5.05Zm-4.11-1h3l-.22-3.05h-3Z"></path><path d="M332.93,175.91h-5l-.36-5h5.05Zm-4.11-1h3l-.21-3h-3Z"></path><rect x="355.54" y="140.91" width="1" height="43.8" transform="matrix(0, -1, 1, 0, 192.81, 518.65)"></rect><rect x="356" y="147.58" width="1" height="43.8" transform="translate(186.6 525.78) rotate(-89.93)"></rect><rect x="356.44" y="153.78" width="1" height="43.8" transform="translate(180.83 532.41) rotate(-89.93)"></rect><path d="M280.69,163.65h-5.05l-.35-5h5Zm-4.12-1h3l-.21-3h-3Z"></path><path d="M281.12,169.87h-5l-.36-5.05h5Zm-4.11-1h3l-.21-3.05h-3Z"></path><path d="M281.54,175.91h-5l-.35-5h5Zm-4.11-1h3l-.21-3h-3Z"></path><rect x="302.87" y="142.18" width="1" height="41.25" transform="translate(140.18 465.97) rotate(-89.93)"></rect><rect x="303.34" y="148.86" width="1" height="41.25" transform="translate(133.98 473.1) rotate(-89.93)"></rect><rect x="303.77" y="155.06" width="1" height="41.25" transform="translate(128.21 479.73) rotate(-89.93)"></rect><path d="M384.71,262.49H333.17L328.45,195H380Zm-50.61-1h49.54L379.06,196H329.52Z"></path><rect x="330.05" y="203.9" width="50.54" height="1"></rect><rect x="330.74" y="213.76" width="50.54" height="1"></rect><rect x="331.43" y="223.62" width="50.54" height="1"></rect><rect x="332.12" y="233.48" width="50.54" height="1"></rect><rect x="332.81" y="243.34" width="50.54" height="1"></rect><rect x="333.5" y="253.2" width="50.54" height="1"></rect><path d="M333.66,262.49H282.55L277.84,195H329Zm-50.17-1h49.1L328,196h-49.1Z"></path><rect x="279.44" y="203.9" width="50.11" height="1"></rect><rect x="280.13" y="213.76" width="50.11" height="1"></rect><rect x="280.82" y="223.62" width="50.11" height="1"></rect><rect x="281.5" y="233.48" width="50.11" height="1"></rect><rect x="282.19" y="243.34" width="50.11" height="1"></rect><rect x="282.88" y="253.2" width="50.11" height="1"></rect></g><g id="freepik--Device--inject-120"><path d="M105.17,74.94h21.15l21.33,243.82H126.5A19.76,19.76,0,0,1,107.19,301L89,92.7A16,16,0,0,1,105.17,74.94Z" style="fill:#263238"></path><path d="M130.83,318.76H218A16,16,0,0,0,234.18,301L216,92.7a19.77,19.77,0,0,0-19.31-17.76H109.5A16,16,0,0,0,93.3,92.7L111.52,301A19.76,19.76,0,0,0,130.83,318.76Z" style="fill:#6B63D7"></path><path d="M109.85,79h22.66a3.29,3.29,0,0,1,3.15,2.57l.15.71a8,8,0,0,0,7.69,6.29H165a6.47,6.47,0,0,0,6.59-6.29l0-.71a2.64,2.64,0,0,1,2.7-2.57H197A15.23,15.23,0,0,1,211.89,92.7L230.11,301a12.33,12.33,0,0,1-12.48,13.68H130.47A15.22,15.22,0,0,1,115.6,301L97.37,92.7A12.33,12.33,0,0,1,109.85,79Z" style="fill:#6B63D7"></path><path d="M109.85,79h22.66a3.29,3.29,0,0,1,3.15,2.57l.15.71a8,8,0,0,0,7.69,6.29H165a6.47,6.47,0,0,0,6.59-6.29l0-.71a2.64,2.64,0,0,1,2.7-2.57H197A15.23,15.23,0,0,1,211.89,92.7L230.11,301a12.33,12.33,0,0,1-12.48,13.68H130.47A15.22,15.22,0,0,1,115.6,301L97.37,92.7A12.33,12.33,0,0,1,109.85,79Z" style="fill:#fff;opacity:0.7000000000000001"></path><g style="opacity:0.2"><path d="M158.9,81.33a1.94,1.94,0,0,0,1.89,1.73,1.57,1.57,0,0,0,1.58-1.73,1.94,1.94,0,0,0-1.89-1.74A1.57,1.57,0,0,0,158.9,81.33Z"></path><path d="M146.48,79.59h5.94a1.94,1.94,0,0,1,1.88,1.74,1.57,1.57,0,0,1-1.58,1.73h-5.94a1.93,1.93,0,0,1-1.88-1.73A1.57,1.57,0,0,1,146.48,79.59Z"></path></g><polygon points="202.04 88.56 200.21 88.56 200.04 86.72 201.88 86.72 202.04 88.56" style="fill:#6B63D7"></polygon><polygon points="198.21 86.72 198.37 88.56 196.54 88.56 196.38 86.72 196.22 84.89 198.05 84.89 198.21 86.72" style="fill:#6B63D7"></polygon><polygon points="194.22 83.06 194.38 84.89 194.55 86.72 194.71 88.56 192.87 88.56 192.71 86.72 192.55 84.89 192.39 83.06 194.22 83.06" style="fill:#6B63D7"></polygon><path d="M107.35,83.18l.47,5.37h8.07l-.12-1.34h.9l-.24-2.69h-.9l-.11-1.34Zm4.6,1.34h2.69l.23,2.69h-2.68Z" style="fill:#6B63D7"></path><path d="M211.89,92.67,230.11,301a12.34,12.34,0,0,1-12.48,13.68H130.47A15.24,15.24,0,0,1,115.59,301L97.37,92.67A12.34,12.34,0,0,1,109.85,79H132.5a3.31,3.31,0,0,1,3.16,2.58l.15.71a8,8,0,0,0,7.69,6.29H165a6.48,6.48,0,0,0,6.59-6.29l0-.71A2.65,2.65,0,0,1,174.35,79H197A15.24,15.24,0,0,1,211.89,92.67Z" style="fill:#263238;opacity:0.7000000000000001"></path><path d="M216.9,149.93,230.11,301a12.34,12.34,0,0,1-12.48,13.68H130.47A15.24,15.24,0,0,1,115.59,301L102.38,149.93Z" style="fill:#6B63D7"></path><path d="M170.42,284.22l1.33,15.21a5.35,5.35,0,0,1-5.41,5.93H122a6.59,6.59,0,0,1-6.44-5.93l-1.33-15.21a5.34,5.34,0,0,1,5.4-5.93H164A6.61,6.61,0,0,1,170.42,284.22Z" style="fill:#263238"></path><path d="M195.49,305.36H180.27a6.61,6.61,0,0,1-6.45-5.93l-1.33-15.22a5.35,5.35,0,0,1,5.41-5.93h15.22a6.61,6.61,0,0,1,6.45,5.93l1.33,15.22A5.34,5.34,0,0,1,195.49,305.36Z" style="fill:#263238"></path><path d="M224.64,305.36H209.42a6.6,6.6,0,0,1-6.45-5.93l-1.33-15.22a5.35,5.35,0,0,1,5.41-5.93h15.22a6.61,6.61,0,0,1,6.45,5.93l1.33,15.22A5.35,5.35,0,0,1,224.64,305.36Z" style="fill:#263238"></path><path d="M134.62,275.89H119.39A6.59,6.59,0,0,1,113,270l-1.33-15.22a5.34,5.34,0,0,1,5.41-5.93h15.22a6.59,6.59,0,0,1,6.44,5.93L140,270A5.33,5.33,0,0,1,134.62,275.89Z" style="fill:#263238"></path><path d="M163.77,275.89H148.54A6.59,6.59,0,0,1,142.1,270l-1.33-15.22a5.34,5.34,0,0,1,5.4-5.93H161.4a6.6,6.6,0,0,1,6.44,5.93L169.17,270A5.33,5.33,0,0,1,163.77,275.89Z" style="fill:#263238"></path><path d="M192.91,275.89H177.69a6.59,6.59,0,0,1-6.44-5.92l-1.34-15.22a5.35,5.35,0,0,1,5.41-5.93h15.22a6.6,6.6,0,0,1,6.45,5.93L198.32,270A5.34,5.34,0,0,1,192.91,275.89Z" style="fill:#263238"></path><path d="M222.06,275.89H206.84a6.6,6.6,0,0,1-6.45-5.92l-1.33-15.22a5.35,5.35,0,0,1,5.41-5.93h15.22a6.6,6.6,0,0,1,6.45,5.93L227.47,270A5.34,5.34,0,0,1,222.06,275.89Z" style="fill:#263238"></path><path d="M132,246.43H116.82a6.6,6.6,0,0,1-6.45-5.93L109,225.28a5.34,5.34,0,0,1,5.41-5.93h15.22a6.6,6.6,0,0,1,6.44,5.93l1.34,15.22A5.35,5.35,0,0,1,132,246.43Z" style="fill:#263238"></path><path d="M161.19,246.43H146a6.6,6.6,0,0,1-6.45-5.93l-1.33-15.22a5.34,5.34,0,0,1,5.41-5.93h15.22a6.6,6.6,0,0,1,6.44,5.93l1.34,15.22A5.35,5.35,0,0,1,161.19,246.43Z" style="fill:#263238"></path><path d="M190.34,246.43H175.11a6.59,6.59,0,0,1-6.44-5.93l-1.33-15.22a5.34,5.34,0,0,1,5.4-5.93H188a6.6,6.6,0,0,1,6.44,5.93l1.33,15.22A5.34,5.34,0,0,1,190.34,246.43Z" style="fill:#263238"></path><path d="M219.48,246.43H204.26a6.59,6.59,0,0,1-6.44-5.93l-1.33-15.22a5.34,5.34,0,0,1,5.4-5.93h15.23a6.6,6.6,0,0,1,6.44,5.93l1.33,15.22A5.34,5.34,0,0,1,219.48,246.43Z" style="fill:#263238"></path><path d="M129.46,217H114.24a6.6,6.6,0,0,1-6.45-5.92l-1.33-15.23a5.35,5.35,0,0,1,5.41-5.92h15.22a6.6,6.6,0,0,1,6.45,5.92L134.87,211A5.34,5.34,0,0,1,129.46,217Z" style="fill:#263238"></path><path d="M158.61,217H143.39a6.6,6.6,0,0,1-6.45-5.92l-1.33-15.23a5.34,5.34,0,0,1,5.41-5.92h15.22a6.6,6.6,0,0,1,6.45,5.92L164,211A5.35,5.35,0,0,1,158.61,217Z" style="fill:#263238"></path><path d="M187.76,217H172.54a6.6,6.6,0,0,1-6.45-5.92l-1.33-15.23a5.34,5.34,0,0,1,5.41-5.92h15.22a6.59,6.59,0,0,1,6.44,5.92L193.17,211A5.35,5.35,0,0,1,187.76,217Z" style="fill:#263238"></path><path d="M216.91,217H201.68a6.59,6.59,0,0,1-6.44-5.92l-1.33-15.23a5.34,5.34,0,0,1,5.41-5.92h15.22a6.59,6.59,0,0,1,6.44,5.92L222.31,211A5.33,5.33,0,0,1,216.91,217Z" style="fill:#263238"></path><path d="M126.88,187.5H111.66a6.6,6.6,0,0,1-6.44-5.93l-1.34-15.22a5.35,5.35,0,0,1,5.41-5.93h15.22a6.61,6.61,0,0,1,6.45,5.93l1.33,15.22A5.34,5.34,0,0,1,126.88,187.5Z" style="fill:#263238"></path><path d="M156,187.5H140.81a6.61,6.61,0,0,1-6.45-5.93L133,166.35a5.35,5.35,0,0,1,5.41-5.93h15.22a6.61,6.61,0,0,1,6.45,5.93l1.33,15.22A5.35,5.35,0,0,1,156,187.5Z" style="fill:#263238"></path><path d="M185.18,187.5H170a6.61,6.61,0,0,1-6.45-5.93l-1.33-15.22a5.35,5.35,0,0,1,5.41-5.93h15.22a6.61,6.61,0,0,1,6.45,5.93l1.33,15.22A5.35,5.35,0,0,1,185.18,187.5Z" style="fill:#263238"></path><path d="M214.33,187.5H199.11a6.61,6.61,0,0,1-6.45-5.93l-1.33-15.22a5.34,5.34,0,0,1,5.41-5.93H212a6.6,6.6,0,0,1,6.44,5.93l1.34,15.22A5.35,5.35,0,0,1,214.33,187.5Z" style="fill:#263238"></path><path d="M164.32,126.54l1.43,16.31h-3l-1.2-13.77h-3.45l-.22-2.54Z" style="fill:#fff"></path><path d="M168.74,141.08a1.69,1.69,0,0,1,1.74-1.94,2.07,2.07,0,0,1,2.08,1.94,1.7,1.7,0,0,1-1.74,1.93A2.1,2.1,0,0,1,168.74,141.08Z" style="fill:#fff"></path><path d="M185.2,126.54l.18,2-5.09,14.28h-3.24L182,129.1h-6.41l.24,2.78H173l-.46-5.34Z" style="fill:#fff"></path><path d="M199.37,126.54l.18,2-5.09,14.28h-3.24l4.93-13.75h-6.41l.24,2.78h-2.82l-.46-5.34Z" style="fill:#fff"></path><path d="M213.54,126.54l.18,2-5.09,14.28h-3.24l4.93-13.75h-6.41l.24,2.78h-2.82l-.47-5.34Z" style="fill:#fff"></path><path d="M140.05,291.18c-.24-2.76,1.13-4.32,3.12-4.32s3.65,1.56,3.89,4.32-1.13,4.32-3.13,4.32S140.29,293.94,140.05,291.18Zm5.44,0c-.18-2-1.05-3-2.2-3s-1.85.93-1.67,3,1,3,2.19,3S145.67,293.21,145.49,291.18Z" style="fill:#fff"></path><path d="M125,258.19l.74,8.4h-1.56l-.62-7.09h-1.78l-.11-1.31Z" style="fill:#fff"></path><path d="M157.76,265.27l.12,1.32h-6.19l-.09-1,3.05-3.17a2.1,2.1,0,0,0,.81-1.74c-.07-.77-.63-1.21-1.66-1.21a2.17,2.17,0,0,0-1.89.87l-1.17-.84a3.55,3.55,0,0,1,3.07-1.39c1.82,0,3.08.93,3.21,2.41a3.07,3.07,0,0,1-1.16,2.65l-2.06,2.14Z" style="fill:#fff"></path><path d="M187.14,264.07c.13,1.42-.83,2.64-3.09,2.64a5.67,5.67,0,0,1-3.24-1l.57-1.21a4.23,4.23,0,0,0,2.53.82c1.11,0,1.73-.49,1.66-1.27s-.66-1.25-1.93-1.25h-.77l-.09-1.06,1.71-2.27h-3.82l-.11-1.31h5.72l.09,1.05-1.83,2.42A2.66,2.66,0,0,1,187.14,264.07Z" style="fill:#fff"></path><path d="M127.51,234.85H126l.16,1.9h-1.51l-.16-1.9h-4.61l-.09-1.08,3.66-5.41h1.67l-3.45,5.17h2.75l-.15-1.69h1.46l.15,1.69h1.49Z" style="fill:#fff"></path><path d="M155.07,234.18c.12,1.47-.84,2.7-3.09,2.7a5.65,5.65,0,0,1-3.24-1l.55-1.21a4.27,4.27,0,0,0,2.55.83c1.11,0,1.73-.49,1.66-1.28s-.63-1.31-2.37-1.31h-2l0-4.57h4.92l.12,1.31h-3.61v1.94h.8C153.85,231.61,154.94,232.69,155.07,234.18Z" style="fill:#fff"></path><path d="M185.27,234.15c.14,1.67-1.12,2.73-2.83,2.73-2.29,0-3.77-1.48-4-4.18-.25-2.88,1.29-4.46,3.72-4.46a4.44,4.44,0,0,1,2.25.54l-.47,1.18a2.94,2.94,0,0,0-1.63-.41c-1.58,0-2.49,1-2.32,2.89h0a2.62,2.62,0,0,1,2.16-.88A2.91,2.91,0,0,1,185.27,234.15Zm-1.51.07a1.61,1.61,0,0,0-1.8-1.42c-1,0-1.65.61-1.58,1.44a1.67,1.67,0,0,0,1.87,1.41C183.22,235.65,183.84,235.1,183.76,234.22Z" style="fill:#fff"></path><path d="M123.18,198.52l.1,1-2.62,7.35H119l2.53-7.08h-3.29l.12,1.43H116.9l-.24-2.75Z" style="fill:#fff"></path><path d="M153.18,204.51c.13,1.56-1.14,2.53-3.22,2.53s-3.51-1-3.64-2.53a1.9,1.9,0,0,1,1.17-2,2.13,2.13,0,0,1-1.2-1.77c-.13-1.44,1.05-2.34,2.91-2.34s3.22.9,3.35,2.34a1.74,1.74,0,0,1-.91,1.77A2.35,2.35,0,0,1,153.18,204.51Zm-1.58,0c-.07-.83-.83-1.34-2-1.34s-1.8.51-1.73,1.34.82,1.36,2,1.36S151.68,205.31,151.6,204.46Zm-3.77-3.64c.06.72.7,1.17,1.69,1.17s1.56-.45,1.5-1.17-.75-1.19-1.71-1.19S147.76,200.06,147.83,200.82Z" style="fill:#fff"></path><path d="M182.27,202.58c.25,2.88-1.29,4.46-3.73,4.46a4.44,4.44,0,0,1-2.25-.54l.47-1.17a3.11,3.11,0,0,0,1.63.4c1.59,0,2.49-1,2.33-2.89h0a2.63,2.63,0,0,1-2.17.88,2.9,2.9,0,0,1-3.11-2.58c-.15-1.67,1.11-2.73,2.83-2.73C180.56,198.4,182,199.88,182.27,202.58Zm-2-1.54a1.67,1.67,0,0,0-1.86-1.41c-1,0-1.6.55-1.52,1.42a1.62,1.62,0,0,0,1.8,1.43C179.75,202.48,180.39,201.87,180.32,201Z" style="fill:#fff"></path><path d="M188.23,293a2.58,2.58,0,0,1-.19,1l-.46,1.69h-1l.32-1.83a1,1,0,0,1-.65-.89.86.86,0,0,1,.89-1A1,1,0,0,1,188.23,293Z" style="fill:#fff"></path><path d="M212.94,289.13h5.53l.1,1.2H213Zm.25,2.9h5.53l.1,1.2H213.3Z" style="fill:#fff"></path><path d="M216.53,262.39H214.4l.19,2.1H213.3l-.18-2.1H211l-.11-1.2H213l-.19-2.1h1.28l.19,2.1h2.12Z" style="fill:#fff"></path><path d="M210.78,205.28l-1.63-1.5-1.35,1.48-1-.91,1.35-1.48-1.63-1.5.77-.85,1.64,1.5,1.35-1.48,1,.9-1.36,1.49,1.64,1.5Z" style="fill:#fff"></path><path d="M210.29,232.8h3.3l.11,1.24h-3.3Z" style="fill:#fff"></path><path d="M208.74,173.85l.07.78h-6.43l-.07-.78Z" style="fill:#fff"></path><path d="M206.09,171.34a.71.71,0,0,1-.72.79.88.88,0,0,1-.86-.79.72.72,0,0,1,.72-.79A.88.88,0,0,1,206.09,171.34Z" style="fill:#fff"></path><path d="M206.6,177.09a.71.71,0,0,1-.72.78.88.88,0,0,1-.86-.78.71.71,0,0,1,.72-.79A.88.88,0,0,1,206.6,177.09Z" style="fill:#fff"></path><path d="M172.17,171.7c-.12-1.38.6-2.31,1.8-2.31a2.29,2.29,0,0,1,2.22,2.31c.12,1.39-.62,2.3-1.82,2.3A2.27,2.27,0,0,1,172.17,171.7Zm3,0c-.08-.94-.51-1.47-1.16-1.47s-1,.54-.9,1.47.54,1.46,1.16,1.46S175.28,172.63,175.2,171.7Zm3.81-2.22h1.18l-5,8.39H174Zm-1,6.18c-.12-1.38.6-2.31,1.8-2.31a2.29,2.29,0,0,1,2.22,2.31c.12,1.37-.62,2.3-1.82,2.3A2.27,2.27,0,0,1,178,175.66Zm3,0c-.08-.93-.52-1.47-1.16-1.47s-1,.53-.9,1.47.52,1.46,1.16,1.46S181.13,176.58,181.05,175.66Z" style="fill:#fff"></path><path d="M114.69,174.67a2.93,2.93,0,0,1,3.18-3.27,3.19,3.19,0,0,1,2.87,1.48l-1.1.68a2,2,0,0,0-1.67-.89,1.71,1.71,0,0,0-1.77,2,2.08,2.08,0,0,0,2.12,2,1.63,1.63,0,0,0,1.52-.88l1.21.67a2.64,2.64,0,0,1-2.6,1.5A3.62,3.62,0,0,1,114.69,174.67Z" style="fill:#fff"></path><polygon points="144.47 170.55 141.67 173.85 145.04 177.09 151.93 177.09 151.36 170.55 144.47 170.55" style="fill:#fff"></polygon><path d="M150.17,172.19,148.56,174l1.84,1.69-.41.44-1.83-1.68-1.62,1.77-.52-.48,1.62-1.77-1.84-1.69.41-.45,1.83,1.69,1.61-1.76Z" style="fill:#263238"></path><g style="opacity:0.1"><path d="M165,88.59,225.14,312.3a12.64,12.64,0,0,1-7.51,2.39h-4.71l-60.8-226.1Z" style="fill:#fff"></path><path d="M109.85,79h22.66a3.29,3.29,0,0,1,3.15,2.57l.15.71a8,8,0,0,0,7.41,6.28L204,314.69H157.65L97.37,90.54A12.27,12.27,0,0,1,109.85,79Z" style="fill:#fff"></path></g></g><g id="freepik--Table--inject-120"><path d="M118.12,356.61v61.78a2.79,2.79,0,0,0,2.78,2.78h0a2.8,2.8,0,0,0,2.76-2.38l5.5-61.87a2.78,2.78,0,0,0-2.8-3.18l-5.5.08A2.79,2.79,0,0,0,118.12,356.61Z" style="fill:#263238"></path><path d="M198.86,356.61v61.78a2.79,2.79,0,0,1-2.78,2.78h0a2.79,2.79,0,0,1-2.76-2.38l-5.5-61.87a2.78,2.78,0,0,1,2.8-3.18l5.5.08A2.79,2.79,0,0,1,198.86,356.61Z" style="fill:#263238"></path><path d="M203.39,357.17H112.63a4.62,4.62,0,0,1-4.62-4.61h0a4.62,4.62,0,0,1,4.62-4.62h90.76a4.62,4.62,0,0,1,4.62,4.62h0A4.62,4.62,0,0,1,203.39,357.17Z" style="fill:#263238"></path><polygon points="123.94 320.77 121.22 348.25 125.65 348.25 123.94 320.77" style="fill:#263238"></polygon><polygon points="157 348.09 125.19 348.22 123.64 320.77 155.44 320.64 157 348.09" style="fill:#6B63D7"></polygon><polygon points="157 348.09 125.19 348.22 123.64 320.77 155.44 320.64 157 348.09" style="fill:#fff;opacity:0.6000000000000001"></polygon><polygon points="155.44 320.64 123.64 320.77 123.34 315.64 155.15 315.5 155.44 320.64" style="fill:#263238"></polygon><path d="M128.1,313.92a.9.9,0,0,0-.89-.84.79.79,0,0,0-.8.85c0,.3.17,3.09.19,3.39a.89.89,0,0,0,.89.84.79.79,0,0,0,.8-.85C128.28,317.07,128.12,314.16,128.1,313.92Z" style="fill:#6B63D7"></path><path d="M134.22,313.9a.9.9,0,0,0-.89-.85.79.79,0,0,0-.8.85c0,.3.17,3.09.19,3.39a.91.91,0,0,0,.9.85.8.8,0,0,0,.8-.85C134.4,317.05,134.24,314.14,134.22,313.9Z" style="fill:#6B63D7"></path><path d="M140.35,313.87a.9.9,0,0,0-.9-.84.79.79,0,0,0-.8.85c0,.3.18,3.09.19,3.39a.91.91,0,0,0,.9.84.8.8,0,0,0,.8-.85C140.52,317,140.36,314.11,140.35,313.87Z" style="fill:#6B63D7"></path><path d="M146.47,313.84a.91.91,0,0,0-.9-.84.8.8,0,0,0-.8.85c0,.3.18,3.09.2,3.39a.9.9,0,0,0,.89.85.8.8,0,0,0,.8-.85C146.65,317,146.48,314.08,146.47,313.84Z" style="fill:#6B63D7"></path><path d="M152.59,313.82a.9.9,0,0,0-.89-.84.79.79,0,0,0-.8.85c0,.3.17,3.09.19,3.39a.89.89,0,0,0,.89.84.79.79,0,0,0,.8-.85C152.77,317,152.6,314.06,152.59,313.82Z" style="fill:#6B63D7"></path><g style="opacity:0.7000000000000001"><path d="M128.1,313.92a.9.9,0,0,0-.89-.84.79.79,0,0,0-.8.85c0,.3.17,3.09.19,3.39a.89.89,0,0,0,.89.84.79.79,0,0,0,.8-.85C128.28,317.07,128.12,314.16,128.1,313.92Z" style="fill:#fff"></path><path d="M134.22,313.9a.9.9,0,0,0-.89-.85.79.79,0,0,0-.8.85c0,.3.17,3.09.19,3.39a.91.91,0,0,0,.9.85.8.8,0,0,0,.8-.85C134.4,317.05,134.24,314.14,134.22,313.9Z" style="fill:#fff"></path><path d="M140.35,313.87a.9.9,0,0,0-.9-.84.79.79,0,0,0-.8.85c0,.3.18,3.09.19,3.39a.91.91,0,0,0,.9.84.8.8,0,0,0,.8-.85C140.52,317,140.36,314.11,140.35,313.87Z" style="fill:#fff"></path><path d="M146.47,313.84a.91.91,0,0,0-.9-.84.8.8,0,0,0-.8.85c0,.3.18,3.09.2,3.39a.9.9,0,0,0,.89.85.8.8,0,0,0,.8-.85C146.65,317,146.48,314.08,146.47,313.84Z" style="fill:#fff"></path><path d="M152.59,313.82a.9.9,0,0,0-.89-.84.79.79,0,0,0-.8.85c0,.3.17,3.09.19,3.39a.89.89,0,0,0,.89.84.79.79,0,0,0,.8-.85C152.77,317,152.6,314.06,152.59,313.82Z" style="fill:#fff"></path></g><polygon points="157.88 347.32 126.08 347.45 123.64 320.77 155.44 320.64 157.88 347.32" style="fill:#6B63D7"></polygon><polygon points="157.88 347.32 126.08 347.45 123.64 320.77 155.44 320.64 157.88 347.32" style="fill:#fff;opacity:0.8"></polygon><polygon points="148.71 327.22 132.96 327.29 132.53 322.6 148.28 322.53 148.71 327.22" style="fill:#6B63D7"></polygon><polygon points="148.71 327.22 132.96 327.29 132.53 322.6 148.28 322.53 148.71 327.22" style="fill:#fff;opacity:0.6000000000000001"></polygon><polygon points="130.87 333.37 126.66 333.38 126.28 329.18 130.48 329.16 130.87 333.37" style="fill:#fff"></polygon><polygon points="136.83 333.34 132.63 333.36 132.24 329.15 136.45 329.13 136.83 333.34" style="fill:#fff"></polygon><polygon points="131.38 339.04 127.18 339.06 126.79 334.85 131 334.83 131.38 339.04" style="fill:#6B63D7"></polygon><polygon points="131.9 344.71 127.7 344.73 127.31 340.52 131.52 340.5 131.9 344.71" style="fill:#6B63D7"></polygon><polygon points="137.35 339.01 133.15 339.03 132.76 334.82 136.97 334.81 137.35 339.01" style="fill:#6B63D7"></polygon><polygon points="137.35 339.01 133.15 339.03 132.76 334.82 136.97 334.81 137.35 339.01" style="fill:#fff;opacity:0.2"></polygon><polygon points="143.32 338.99 139.11 339 138.73 334.8 142.93 334.78 143.32 338.99" style="fill:#6B63D7"></polygon><polygon points="143.32 338.99 139.11 339 138.73 334.8 142.93 334.78 143.32 338.99" style="fill:#fff;opacity:0.2"></polygon><polygon points="149.28 338.96 145.08 338.98 144.69 334.77 148.9 334.76 149.28 338.96" style="fill:#6B63D7"></polygon><polygon points="149.28 338.96 145.08 338.98 144.69 334.77 148.9 334.76 149.28 338.96" style="fill:#fff;opacity:0.2"></polygon><polygon points="155.25 338.94 151.04 338.96 150.66 334.75 154.86 334.73 155.25 338.94" style="fill:#6B63D7"></polygon><polygon points="155.25 338.94 151.04 338.96 150.66 334.75 154.86 334.73 155.25 338.94" style="fill:#fff;opacity:0.2"></polygon><polygon points="137.87 344.69 133.66 344.7 133.28 340.5 137.48 340.48 137.87 344.69" style="fill:#6B63D7"></polygon><polygon points="137.87 344.69 133.66 344.7 133.28 340.5 137.48 340.48 137.87 344.69" style="fill:#fff;opacity:0.2"></polygon><polygon points="143.84 344.66 139.63 344.68 139.25 340.47 143.45 340.45 143.84 344.66" style="fill:#6B63D7"></polygon><polygon points="143.84 344.66 139.63 344.68 139.25 340.47 143.45 340.45 143.84 344.66" style="fill:#fff;opacity:0.2"></polygon><polygon points="149.8 344.64 145.59 344.65 145.21 340.45 149.42 340.43 149.8 344.64" style="fill:#6B63D7"></polygon><polygon points="149.8 344.64 145.59 344.65 145.21 340.45 149.42 340.43 149.8 344.64" style="fill:#fff;opacity:0.2"></polygon><polygon points="142.8 333.31 138.59 333.33 138.21 329.13 142.41 329.11 142.8 333.31" style="fill:none"></polygon><polygon points="142.8 333.31 138.59 333.33 138.21 329.13 142.41 329.11 142.8 333.31" style="fill:#6B63D7"></polygon><polygon points="142.8 333.31 138.59 333.33 138.21 329.13 142.41 329.11 142.8 333.31" style="fill:#fff;opacity:0.2"></polygon><polygon points="148.76 333.29 144.56 333.31 144.17 329.1 148.38 329.08 148.76 333.29" style="fill:none"></polygon><polygon points="148.76 333.29 144.56 333.31 144.17 329.1 148.38 329.08 148.76 333.29" style="fill:#6B63D7"></polygon><polygon points="148.76 333.29 144.56 333.31 144.17 329.1 148.38 329.08 148.76 333.29" style="fill:#fff;opacity:0.2"></polygon><polygon points="154.73 333.26 150.52 333.28 150.14 329.08 154.34 329.06 154.73 333.26" style="fill:none"></polygon><polygon points="154.73 333.26 150.52 333.28 150.14 329.08 154.34 329.06 154.73 333.26" style="fill:#6B63D7"></polygon><polygon points="154.73 333.26 150.52 333.28 150.14 329.08 154.34 329.06 154.73 333.26" style="fill:#fff;opacity:0.2"></polygon><polygon points="155.77 344.61 151.56 344.63 151.18 340.42 155.38 340.4 155.77 344.61" style="fill:#fff"></polygon><path d="M190.57,340.47v6.36a.61.61,0,0,1,0,1.21c-2.42,0-4.85,0-7.27,0v-8.83h7.27A.61.61,0,0,1,190.57,340.47Z" style="fill:#6B63D7"></path><path d="M190.57,340.47v6.36a.61.61,0,0,1,0,1.21c-2.42,0-4.85,0-7.27,0v-8.83h7.27A.61.61,0,0,1,190.57,340.47Z" style="fill:#fff;opacity:0.30000000000000004"></path><rect x="184.92" y="340.48" width="5.65" height="6.35" style="fill:#6B63D7"></rect><rect x="184.92" y="340.48" width="5.65" height="6.35" style="fill:#fff;opacity:0.6000000000000001"></rect><path d="M186.11,339.86H154.92c-1.34,0-2.43,1.7-2.43,3.79s1.09,3.79,2.43,3.79h31.19Z" style="fill:#6B63D7"></path><path d="M186.11,339.86H154.92c-1.34,0-2.43,1.7-2.43,3.79s1.09,3.79,2.43,3.79h31.19Z" style="fill:#fff;opacity:0.9"></path><path d="M186.11,348c-6.41,0-24.44.12-30.85,0-4.39-.07-4.62-8.49-.32-8.79,3-.2,6.1,0,9.1,0h22.07a.61.61,0,0,1,0,1.22H156.28c-1.41,0-2.41,0-3,1.67-.47,1.44-.32,4.37,1.6,4.69a4.85,4.85,0,0,0,.66,0h30.53a.61.61,0,0,1,0,1.21Z" style="fill:#6B63D7"></path><path d="M188.55,339.09l-5.08.07a3.39,3.39,0,0,1,1.34-2.71,3.47,3.47,0,0,1,.9-.4,2.63,2.63,0,0,1,1.29,1,9.34,9.34,0,0,1,.83,1.48A1,1,0,0,0,188.55,339.09Z" style="fill:#6B63D7"></path><g style="opacity:0.30000000000000004"><path d="M188.55,339.09l-5-.06a3,3,0,0,1,1.22-2.58,3.47,3.47,0,0,1,.9-.4,2.63,2.63,0,0,1,1.29,1,9.34,9.34,0,0,1,.83,1.48A1,1,0,0,0,188.55,339.09Z"></path></g><path d="M180.08,339.1h-5.56a9.7,9.7,0,0,1,.86-3,5.75,5.75,0,0,1,1.68-2,6.15,6.15,0,0,1,1.65-.72c1,.46.78,4.9,1.36,5.37Z" style="fill:#6B63D7"></path><path d="M185.63,336.08a3.18,3.18,0,0,0-.82.36,3.09,3.09,0,0,0-1.21,2.46.62.62,0,0,0,0,.13,1,1,0,0,1-.32-.11.1.1,0,0,0,0,0,.82.82,0,0,0,.35.13h-3.6v-.28h0c.21,0,0-3.16,1.43-2.73,0,0,0,0,0-.05Z" style="fill:#6B63D7"></path><path d="M158.93,333.25h-.4A2.09,2.09,0,0,1,158.93,333.25Z" style="fill:#6B63D7"></path><path d="M180.07,339.1h-5.55a9.7,9.7,0,0,1,.86-3,5.75,5.75,0,0,1,1.68-2,6.15,6.15,0,0,1,1.65-.72c1,.46.79,4.9,1.37,5.37Z" style="fill:#6B63D7"></path><path d="M183.67,339.09h-9.15a9.7,9.7,0,0,1,.86-3,5.75,5.75,0,0,1,1.68-2,6.15,6.15,0,0,1,1.65-.72c1,.46.79,4.9,1.37,5.37.24.2,2.9-.07,3.24.14A.82.82,0,0,0,183.67,339.09Z" style="opacity:0.30000000000000004"></path><path d="M183.62,339h0Z" style="fill:#6B63D7"></path><path d="M178.9,333.39a6.15,6.15,0,0,0-1.65.72,5.75,5.75,0,0,0-1.68,2,7,7,0,0,0-.74,3,11.07,11.07,0,0,0,.07,1.67,9.76,9.76,0,0,0,.43,2H155.12a7.36,7.36,0,0,1-.24-5.59,7,7,0,0,1,3.7-3.82h.64Z" style="fill:#6B63D7"></path><path d="M178.9,333.39a6.15,6.15,0,0,0-1.65.72,5.75,5.75,0,0,0-1.68,2,7,7,0,0,0-.74,3,11.07,11.07,0,0,0,.07,1.67,9.76,9.76,0,0,0,.43,2H155.12a7.36,7.36,0,0,1-.24-5.59,7,7,0,0,1,3.7-3.82h.64Z" style="fill:#fff;opacity:0.30000000000000004"></path></g><g id="freepik--Character--inject-120"><path d="M387.53,395.3l5.81-92.51a59.66,59.66,0,0,0-59.55-63.41h0a59.67,59.67,0,0,0-59.58,56.32l-6.09,108H378.55A9,9,0,0,0,387.53,395.3Z" style="fill:#6B63D7"></path><path d="M387.74,392l5.6-89.16a59.66,59.66,0,0,0-59.55-63.41h0a59.67,59.67,0,0,0-59.58,56.32l-6.09,108H375.19A12.57,12.57,0,0,0,387.74,392Z" style="opacity:0.1"></path><path d="M369.61,403.74,376,302.79a59.67,59.67,0,0,0-59.55-63.41h0a59.67,59.67,0,0,0-59.58,56.32l-6.1,108Z" style="fill:#6B63D7"></path><path d="M371.51,421.12H373a1.75,1.75,0,0,0,1.63-1.55l2.25-15.82h-9.29l2.25,15.82A1.75,1.75,0,0,0,371.51,421.12Z" style="fill:#263238"></path><path d="M222,421.12h1.38a1.67,1.67,0,0,0,1.48-1.55l2-15.82h-8.41l2,15.82A1.66,1.66,0,0,0,222,421.12Z" style="fill:#263238"></path><path d="M265.07,421.12h1.39a1.65,1.65,0,0,0,1.47-1.55l2-15.82h-8.41l2,15.82A1.65,1.65,0,0,0,265.07,421.12Z" style="fill:#263238"></path><path d="M325.18,421.12h1.52a1.74,1.74,0,0,0,1.63-1.55l2.25-15.82H321.3l2.25,15.82A1.75,1.75,0,0,0,325.18,421.12Z" style="fill:#263238"></path><path d="M274.81,365.62H234.12l-2.69-39.22-.58-8.42v0l-.26-3.87a27.13,27.13,0,0,0-.4-3c0-.21-.1-.45-.14-.67a2.59,2.59,0,0,0-.12-.48,23.51,23.51,0,0,0-6.2-10.53,20,20,0,0,0-12.7-5.73h38.26l1.26,0a19.87,19.87,0,0,1,13.86,5.76,23.51,23.51,0,0,1,6.2,10.53,2.59,2.59,0,0,1,.12.48,26.1,26.1,0,0,1,.54,3.71l.27,3.87v0Z" style="fill:#6B63D7"></path><path d="M274.81,365.62H234.12l-2.69-39.22-.58-8.42v0l-.26-3.87a27.13,27.13,0,0,0-.4-3c0-.21-.1-.45-.14-.67a2.59,2.59,0,0,0-.12-.48,23.51,23.51,0,0,0-6.2-10.53,20,20,0,0,0-12.7-5.73h38.26l1.26,0a19.87,19.87,0,0,1,13.86,5.76,23.51,23.51,0,0,1,6.2,10.53,2.59,2.59,0,0,1,.12.48,26.1,26.1,0,0,1,.54,3.71l.27,3.87v0Z" style="opacity:0.1"></path><g style="opacity:0.1"><path d="M307.05,344.72h16.34c4,0,7.19,2.52,7.19,5.62V360c0,3.1-3.22,5.61-7.19,5.61H307.05Z"></path></g><rect x="234.13" y="344.72" width="84.36" height="20.9" rx="5.42" transform="translate(552.62 710.35) rotate(180)" style="fill:#6B63D7"></rect><path d="M410.05,316.78a23.18,23.18,0,0,1-19.23,22.85l-4.22,55.74c-.36,4.74-3.8,8.37-7.92,8.37H333.81c4.11,0,7.55-3.63,7.92-8.37L344,365.62l2-26a23.1,23.1,0,0,0,16.63-12.2c.22-.4.42-.83.6-1.25a23.08,23.08,0,0,0,1.51-14.13c-.12-.62-.28-1.24-.45-1.84a23.51,23.51,0,0,0-3.85-7.54h0a23.11,23.11,0,0,0-8-6.6A22.85,22.85,0,0,0,342,293.61h44.88a23.18,23.18,0,0,1,6.85,1,22.41,22.41,0,0,1,3.51,1.42,23.08,23.08,0,0,1,8,6.6h0A23.16,23.16,0,0,1,410.05,316.78Z" style="fill:#6B63D7"></path><path d="M410.05,316.78a23.18,23.18,0,0,1-19.23,22.85l-4.22,55.74c-.36,4.74-3.8,8.37-7.92,8.37H333.81c4.11,0,7.55-3.63,7.92-8.37L344,365.62l2-26a23.1,23.1,0,0,0,16.63-12.2c.22-.4.42-.83.6-1.25a23.08,23.08,0,0,0,1.51-14.13c-.12-.62-.28-1.24-.45-1.84a23.51,23.51,0,0,0-3.85-7.54h0a23.11,23.11,0,0,0-8-6.6A22.85,22.85,0,0,0,342,293.61h44.88a23.18,23.18,0,0,1,6.85,1,22.41,22.41,0,0,1,3.51,1.42,23.08,23.08,0,0,1,8,6.6h0A23.16,23.16,0,0,1,410.05,316.78Z" style="opacity:0.1"></path><path d="M365.17,316.78c0,11.45-7.53,21-17.43,22.85l-3.82,55.74c-.33,4.74-3.44,8.38-7.19,8.38H216.91c-3.74,0-6.85-3.64-7.19-8.38l-3.83-55.83c-9.7-2-17-11.45-17-22.76a24.63,24.63,0,0,1,3.88-13.39,21.64,21.64,0,0,1,7.75-7.33,19.14,19.14,0,0,1,9.39-2.46,19.88,19.88,0,0,1,13.86,5.77,23.39,23.39,0,0,1,6.2,10.52,2.8,2.8,0,0,1,.12.5,24.42,24.42,0,0,1,.54,3.7l.27,3.87h0l3.26,47.65h85.4l3.53-51.53c.51-7.28,4.05-13.34,9-16.22a19.55,19.55,0,0,1,10.88-4.21,10.63,10.63,0,0,1,1.26-.06,19.14,19.14,0,0,1,9.13,2.32l.26.14a21.61,21.61,0,0,1,7.27,6.6h0A24.67,24.67,0,0,1,365.17,316.78Z" style="fill:#6B63D7"></path><path d="M317.54,403.75H216.91c-3.74,0-6.85-3.64-7.19-8.38l-3.83-55.83c-9.7-2-17-11.45-17-22.76a24.63,24.63,0,0,1,3.88-13.39,21.64,21.64,0,0,1,7.75-7.33,19.14,19.14,0,0,1,9.39-2.46,19.88,19.88,0,0,1,13.86,5.77,23.39,23.39,0,0,1,6.2,10.52,2.8,2.8,0,0,1,.12.5,24.42,24.42,0,0,1,.54,3.7l.27,3.87h0l3.26,47.65h85.4Z" style="fill:#fff;opacity:0.1"></path><path d="M319.52,365.62l3.53-51.53c.51-7.28,4.05-13.34,9-16.22a19.55,19.55,0,0,1,10.88-4.21,10.63,10.63,0,0,1,1.26-.06,19.14,19.14,0,0,1,9.13,2.32l.26.14a21.61,21.61,0,0,1,7.27,6.6h0a24.67,24.67,0,0,1,4.34,14.11c0,11.45-7.53,21-17.43,22.85l-3.82,55.74c-.33,4.74-3.44,8.38-7.19,8.38H317.54Z" style="fill:#6B63D7"></path><path d="M319.52,365.62l3.53-51.53c.51-7.28,4.05-13.34,9-16.22a19.55,19.55,0,0,1,10.88-4.21,10.63,10.63,0,0,1,1.26-.06,19.14,19.14,0,0,1,9.13,2.32l.26.14a21.61,21.61,0,0,1,7.27,6.6h0a24.67,24.67,0,0,1,4.34,14.11c0,11.45-7.53,21-17.43,22.85l-3.82,55.74c-.33,4.74-3.44,8.38-7.19,8.38H317.54Z" style="fill:#fff;opacity:0.1"></path><path d="M287.54,234.54c-9.75,1.93-29.06,10.23-29.18,9.77,0,0-16.26-3.85-22.93-11.22,0,0-6.38-.79-9.73-1.44,2.43,5.71,7.15,12.63,12.4,15.93,6.67,4.19,8.49,5.46,15.09,8,8.26,3.14,20.9-.2,29.07-3.55,3-1.23,6.11-2.8,7.88-5.54S290.24,236.37,287.54,234.54Z" style="fill:#263238"></path><path d="M287.54,234.54c-9.75,1.93-29.06,10.23-29.18,9.77,0,0-16.26-3.85-22.93-11.22,0,0-6.38-.79-9.73-1.44,2.43,5.71,7.15,12.63,12.4,15.93,6.67,4.19,8.49,5.46,15.09,8,8.26,3.14,20.9-.2,29.07-3.55,3-1.23,6.11-2.8,7.88-5.54S290.24,236.37,287.54,234.54Z" style="opacity:0.30000000000000004;isolation:isolate"></path><path d="M249.42,235.11l-13,.74a.75.75,0,0,1-.76-.64l-3.09-25.75a.62.62,0,0,1,.59-.71L246,208a.74.74,0,0,1,.76.64L250,234.4A.62.62,0,0,1,249.42,235.11Z" style="fill:#263238"></path><path d="M249.42,235.11l-13,.74a.75.75,0,0,1-.76-.64l-3.09-25.75a.62.62,0,0,1,.59-.71L246,208a.74.74,0,0,1,.76.64L250,234.4A.62.62,0,0,1,249.42,235.11Z" style="fill:#fff;opacity:0.7000000000000001"></path><path d="M248.84,234.72l-12.64.71a.85.85,0,0,1-.88-.73l-3.24-25.53a.73.73,0,0,1,.68-.83l12.64-.71a.85.85,0,0,1,.88.73l3.24,25.54A.72.72,0,0,1,248.84,234.72Z" style="fill:#263238"></path><path d="M248.84,234.72l-12.64.71a.85.85,0,0,1-.88-.73l-3.24-25.53a.73.73,0,0,1,.68-.83l12.64-.71a.85.85,0,0,1,.88.73l3.24,25.54A.72.72,0,0,1,248.84,234.72Z" style="fill:#fff;opacity:0.2"></path><path d="M236.29,209.28l.85,6.69a.31.31,0,0,1-.29.35l-2.88.16a.35.35,0,0,1-.17,0,.35.35,0,0,1-.21-.27l-.85-6.69a.32.32,0,0,1,.3-.36l2.87-.16a.32.32,0,0,1,.31.16A.29.29,0,0,1,236.29,209.28Z" style="opacity:0.4"></path><path d="M236.44,209.4l.85,6.69a.32.32,0,0,1-.29.36l-2.88.16a.35.35,0,0,1-.32-.17.35.35,0,0,0,.17,0l2.88-.16a.31.31,0,0,0,.29-.35l-.85-6.69a.29.29,0,0,0-.07-.16A.36.36,0,0,1,236.44,209.4Z" style="opacity:0.5"></path><path d="M236,210.86a1.19,1.19,0,0,1-1.12,1.36,1.4,1.4,0,0,1-1.45-1.21,1.18,1.18,0,0,1,1.12-1.35A1.4,1.4,0,0,1,236,210.86Z"></path><path d="M236.43,214.25a1.18,1.18,0,0,1-1.12,1.35,1.4,1.4,0,0,1-1.45-1.21A1.18,1.18,0,0,1,235,213,1.4,1.4,0,0,1,236.43,214.25Z"></path><path d="M235.42,214.3a.26.26,0,0,1-.24.29.3.3,0,0,1-.31-.26.26.26,0,0,1,.24-.29A.31.31,0,0,1,235.42,214.3Z" style="fill:#fff;opacity:0.2"></path><path d="M235,211a.26.26,0,0,1-.24.29.31.31,0,0,1-.31-.26.26.26,0,0,1,.24-.29A.3.3,0,0,1,235,211Z" style="fill:#fff;opacity:0.2"></path><path d="M241.13,230.28l-4.25.86a6.45,6.45,0,0,1-3,2.48,16.64,16.64,0,0,1-3.71.56,4.71,4.71,0,0,1-4.42-2.53,1.86,1.86,0,0,1,.14-2.09l5.34-5.83a2.88,2.88,0,0,1,2.39-.93l6.18.58a2.13,2.13,0,0,1,1.74,1.28l1.16,2.73A2.11,2.11,0,0,1,241.13,230.28Z" style="fill:#ffc3bd"></path><path d="M331.92,248.54c-3.23,31.31-11.28,68.62-11.28,68.62-3.28-3.06-6.9-4.65-12-5.88-9.13-2.19-28-6.76-28-6.91-2.1-.43-6.83-3.09-7.11-3-13-5.77-6.92-20.63-2.32-28.77a35.25,35.25,0,0,0,4.1-12.3c1-6.8,3.15-16,6.51-21.81a8.1,8.1,0,0,1,5.69-3.95c3.38-.57,8.23-1.37,8.17-1.23,7.16-.54,19.74.41,20.33.42l3.5.22A13.27,13.27,0,0,1,331.92,248.54Z" style="fill:#263238"></path><path d="M314.14,234.79A34.48,34.48,0,0,1,295,243.88c-9.33,1.52-7-4.12-4.48-7.23,6.49-2.92,6.56-4,5.5-7.74a2,2,0,0,0-.06-.23c-.12-.41-.25-.83-.38-1.25s-.23-.74-.34-1.12l.24-.18,7.57-6.43,9.15-6.86C310.44,219.49,308.8,231.22,314.14,234.79Z" style="fill:#ffc3bd"></path><polygon points="256.89 413.97 248.72 414.76 243.88 391.74 253.51 390.63 256.89 413.97" style="fill:#ffc3bd"></polygon><path d="M245.34,412.86a4.34,4.34,0,0,1,2.86-1.29L257,411a.78.78,0,0,1,.86.63l1.68,8.14a1.72,1.72,0,0,1-1.31,2h-.06c-3.31.86-5.39.17-10.44.51-3.12.22-9.75,1.46-14,.76s-3.71-4.92-1.88-5C238.31,417.83,243.65,414.61,245.34,412.86Z" style="fill:#263238"></path><g style="opacity:0.2"><polygon points="243.87 391.75 246.69 405.14 255.36 403.33 253.52 390.63 243.87 391.75"></polygon></g><path d="M295.09,344c-.33,0-.66,0-1,0a15.81,15.81,0,0,1-1.67-.12l-43.74-2.34c7.06,6.47,8.22,58.38,8.22,58.38l-2.1.45-9.48,2h0l-1.74.37s-4-17-8.57-36.5c-2.32-9.87-5.33-20.08-6.62-29.88a68.36,68.36,0,0,1-.63-7.86c0-.8,0-1.6,0-2.4a2.09,2.09,0,0,1,0-.25c0-.34,0-.67.08-1a8.46,8.46,0,0,1,1.91-4.3l.32-.37c.11-.12.22-.24.34-.35a9.46,9.46,0,0,1,.73-.68c.26-.22.53-.43.81-.64l.74-.51c.3-.19.61-.37.93-.55.16-.09.32-.18.49-.26.5-.26,1-.51,1.55-.74l.47-.2.64-.24q.28-.12.57-.21c.58-.21,1.18-.41,1.8-.58l.31-.09.09,0c16.59-4.7,44.83-1.07,44.83-1.07s7.45-5.52,15.38-6.57l1.12.13,3.53.39.15,0C316.14,328.43,308.94,343.87,295.09,344Z" style="fill:#6B63D7"></path><g style="opacity:0.30000000000000004"><path d="M295.09,344c-.33,0-.66,0-1,0a15.81,15.81,0,0,1-1.67-.12l-43.74-2.34c7.06,6.47,8.22,58.38,8.22,58.38l-2.1.45-9.48,2h0l-1.74.37s-4-17-8.57-36.5c-2.32-9.87-5.33-20.08-6.62-29.88a68.36,68.36,0,0,1-.63-7.86c0-.8,0-1.6,0-2.4a2.09,2.09,0,0,1,0-.25c0-.34,0-.67.08-1a8.46,8.46,0,0,1,1.91-4.3l.32-.37c.11-.12.22-.24.34-.35a9.46,9.46,0,0,1,.73-.68c.26-.22.53-.43.81-.64l.74-.51c.3-.19.61-.37.93-.55.16-.09.32-.18.49-.26.5-.26,1-.51,1.55-.74l.47-.2.64-.24q.28-.12.57-.21c.58-.21,1.18-.41,1.8-.58l.31-.09.09,0c16.59-4.7,44.83-1.07,44.83-1.07s7.45-5.52,15.38-6.57l1.12.13,3.53.39.15,0C316.14,328.43,308.94,343.87,295.09,344Z" style="fill:#fff"></path></g><polygon points="202.79 374.89 200.45 378.47 195.24 386.47 186.52 387.38 193.13 373.49 197.62 364.04 202.79 374.89" style="fill:#ffc3bd"></polygon><path d="M188.73,381.4l7.22,4.5a.76.76,0,0,1,.34,1l-3.54,8.26a1.69,1.69,0,0,1-2.27.74l0,0c-3.36-2.05-4.87-3.21-9.15-5.71L170.68,384c-3.63-2.13-1.67-5.8,0-5.24,7.67,2.53,12.79,2.88,16.23,2.32A2.64,2.64,0,0,1,188.73,381.4Z" style="fill:#263238"></path><g style="opacity:0.2"><polygon points="202.79 374.89 200.46 378.47 200.45 378.47 193.13 373.49 197.62 364.04 202.79 374.89"></polygon></g><path d="M297.9,344.82a22.34,22.34,0,0,1-2.81-.55c-.33-.08-.66-.17-1-.28-8-2.31-19.59-8.64-30.35-14.87-9.91-5.73-19.11-11.38-24.2-13.73l-.09,0-.31.09c-.62.17-1.22.37-1.8.58q-.28.09-.57.21l-.64.24-.47.2c-.54.23-1,.48-1.55.74-.17.08-.33.17-.49.26-.32.18-.63.36-.93.55l-.74.51c-.28.21-.55.42-.81.64a9.46,9.46,0,0,0-.73.68c-.12.11-.23.23-.34.35l-.32.37a8.46,8.46,0,0,0-1.91,4.3c0,.32-.07.65-.08,1,0,.8,0,1.6,0,2.4a69.26,69.26,0,0,0,.6,7.91l0,.2C216.43,358.17,204,377.71,204,377.71l-2.11-1.45L194.29,371l-1.32-.91s13.26-31.07,22.39-58.75A25.26,25.26,0,0,1,239.55,294c22.52.2,52.08,12.65,52.08,12.65l8.12.86,1.12.13,3.53.39.15,0c1.93.21,4,.37,6.1.52a11,11,0,0,1,9.86,8.12C326.49,338.59,312.1,346.56,297.9,344.82Z" style="fill:#6B63D7"></path><g style="opacity:0.4"><path d="M297.9,344.82a22.34,22.34,0,0,1-2.81-.55c-.33-.08-.66-.17-1-.28-8-2.31-19.59-8.64-30.35-14.87-9.91-5.73-19.11-11.38-24.2-13.73l-.09,0-.31.09c-.62.17-1.22.37-1.8.58q-.28.09-.57.21l-.64.24-.47.2c-.54.23-1,.48-1.55.74-.17.08-.33.17-.49.26-.32.18-.63.36-.93.55l-.74.51c-.28.21-.55.42-.81.64a9.46,9.46,0,0,0-.73.68c-.12.11-.23.23-.34.35l-.32.37a8.46,8.46,0,0,0-1.91,4.3c0,.32-.07.65-.08,1,0,.8,0,1.6,0,2.4a69.26,69.26,0,0,0,.6,7.91l0,.2C216.43,358.17,204,377.71,204,377.71l-2.11-1.45L194.29,371l-1.32-.91s13.26-31.07,22.39-58.75A25.26,25.26,0,0,1,239.55,294c22.52.2,52.08,12.65,52.08,12.65l8.12.86,1.12.13,3.53.39.15,0c1.77.19,3.7.34,5.6.48a11.7,11.7,0,0,1,10.49,8.64C326.28,338.71,312,346.55,297.9,344.82Z" style="fill:#fff"></path></g><path d="M239.45,315.15h0l-.31.09Z" style="fill:#6B63D7"></path><path d="M296,228.91a2,2,0,0,0-.06-.23c-.12-.41-.25-.83-.38-1.25s-.23-.74-.34-1.12l.24-.18,7.57-6.43,1.72-1.08C306,225.82,299.49,228.36,296,228.91Z" style="opacity:0.30000000000000004;isolation:isolate"></path><path d="M292.79,195c-8,4.52-8.09,17.31-5.62,24.7A11.08,11.08,0,0,0,306.58,223c3.91-4.95,3.35-9.94,3.16-18.53S300.79,190.5,292.79,195Z" style="fill:#ffc3bd"></path><path d="M305.45,192.09s0-4.83-5.73-3.56c-4.77,1.05-10.39,4.42-13.06,4.61a17.1,17.1,0,0,0-3.58.32,3.07,3.07,0,0,0-2.36,2.43c-.09,1.2,1.35,2.36,2.36,1.71-.16,0-.67.19-.84.17-.77-.09-2.43,2.19-.88,3.86,2.47,2.66,15.53-2.31,18.5-3.19a2,2,0,0,1,2.13.66c1.74,2.24,2.11,6.26,2.11,6.26a3.55,3.55,0,0,1,3.06.82c1.5,1.38,2.09,3.45,2.61,5.42a63.2,63.2,0,0,1,1,9.23c.53-4.4,1.14-10.89,1.45-15.34C312.58,199.93,311.18,191.62,305.45,192.09Z" style="fill:#263238"></path><path d="M311,207.89c-2.4.54-3.42,4-3.35,6.2,0,2.5,1.86,4.14,3.94,2.63a7.72,7.72,0,0,0,3-4.83C315.05,209.52,313.43,207.35,311,207.89Z" style="fill:#ffc3bd"></path><path d="M293.36,215.77a3,3,0,0,1-2.49.38c.93-2.07.81-1.6,1.09-5.12Z" style="fill:#ed847e"></path><path d="M298.32,205.18a4.82,4.82,0,0,0-3.57-.92h0a.39.39,0,0,1-.44-.33.43.43,0,0,1,.34-.48c1.28-.2,3.41.19,4.28,1.15h0a.4.4,0,0,1,0,.57.57.57,0,0,1-.18.12A.42.42,0,0,1,298.32,205.18Z" style="fill:#263238"></path><path d="M286.49,206.93l0,0a.39.39,0,0,1-.11-.54,4.27,4.27,0,0,1,3.14-2.15h0a.38.38,0,0,1,.38.38.43.43,0,0,1-.4.44,3.44,3.44,0,0,0-2.46,1.74.44.44,0,0,1-.33.21A.46.46,0,0,1,286.49,206.93Z" style="fill:#263238"></path><path d="M293.15,219.39a35,35,0,0,1,2.42,3.52l.57-.24c2.57-1.12,3.3-2.67,3.33-4a5.24,5.24,0,0,0-.41-2,5.36,5.36,0,0,0-.56-1.05c-.92,1.58-3.22,2.84-4.48,3.45C293.49,219.26,293.15,219.39,293.15,219.39Z" style="fill:#263238"></path><path d="M294,219l.36.51a.77.77,0,0,0,.95.25c1.9-.89,3.16-1.85,3.62-2.86a.75.75,0,0,0,0-.62,5.63,5.63,0,0,0-.42-.73C297.58,217.12,295.28,218.38,294,219Z" style="fill:#fff"></path><path d="M296.14,222.67c2.57-1.12,3.3-2.67,3.33-4a7.69,7.69,0,0,0-2.55,1.92A3.66,3.66,0,0,0,296.14,222.67Z" style="fill:#de5753"></path><path d="M298.83,215.92a1.58,1.58,0,0,1,0,1,2,2,0,0,1-.51,1.19,1.81,1.81,0,0,1-.88.36,5.18,5.18,0,0,1-3-.48,3.33,3.33,0,0,1-4.54,1.85l0-.32a2,2,0,0,0,.76-1.18,6.36,6.36,0,0,1,.44-1.36,1.28,1.28,0,0,1,1.14-.73,9.9,9.9,0,0,1,2.39-1,3.52,3.52,0,0,1,2.43.38,3.26,3.26,0,0,0,.85.48C298.24,216.18,298.77,216.24,298.83,215.92Z" style="fill:#263238"></path><path d="M289.43,209.83c-.44.08-.7.72-.56,1.4s.61,1.18,1.05,1.09.7-.72.57-1.4S289.88,209.75,289.43,209.83Z" style="fill:#263238"></path><path d="M297.28,208.53c-.45.08-.7.71-.57,1.4s.61,1.18,1.05,1.09.71-.72.57-1.4S297.72,208.45,297.28,208.53Z" style="fill:#263238"></path><path d="M320.67,258.65c-7,4.35-16.19,10-17.55,10.32-12.82,8.1-17.13-5.85-18.05-7.52-1.62-2.9-2.57-6.66-3.85-9.72-2.51-5.9-5.15-11.18-6.9-17.35l6.14-2.56s12.37,17.55,14,19.83c.7,1,4.44,5.77,6.48,3.31,1.18-.38,14.1-13.64,20.36-17.91a6.24,6.24,0,0,1,2.34-1l.28-.05a6,6,0,0,1,5.26,2,9.32,9.32,0,0,1,.7,12.09h0A33.62,33.62,0,0,1,320.67,258.65Z" style="fill:#263238"></path><g style="opacity:0.1"><path d="M320.67,258.65c-7,4.35-16.19,10-17.55,10.32-12.82,8.1-17.13-5.85-18.05-7.52-1.62-2.9-2.57-6.66-3.85-9.72-2.51-5.9-5.15-11.18-6.9-17.35l6.14-2.56s12.37,17.55,14,19.83c.7,1,4.44,5.77,6.48,3.31,1.18-.38,14.1-13.64,20.36-17.91a6.24,6.24,0,0,1,2.34-1l.28-.05a6,6,0,0,1,5.26,2,9.32,9.32,0,0,1,.7,12.09h0A33.62,33.62,0,0,1,320.67,258.65Z" style="fill:#fff"></path></g><path d="M280.17,232.53h0a5.5,5.5,0,0,1-7.83,1.82,24,24,0,0,1-3.86-3.27l6.74-7.9,4.79,6.51A2.61,2.61,0,0,1,280.17,232.53Z" style="fill:#ffc3bd"></path><path d="M275.22,223.18l-6.73,7.93-3-2.43a4.79,4.79,0,0,1-1.16-6.08l.12-.21a4.79,4.79,0,0,1,6.74-1.72Z" style="fill:#ffc3bd"></path></g></svg>